<svg width="800" height="586" viewBox="0 0 800 586" fill="none" xmlns="http://www.w3.org/2000/svg">
<path d="M86.7141 307.043C102.564 291.193 102.564 265.495 86.7141 249.644C70.8639 233.794 45.1657 233.794 29.3155 249.644C13.4653 265.495 13.4653 291.193 29.3155 307.043C45.1657 322.893 70.8639 322.893 86.7141 307.043Z" fill="#D6EEFF"/>
<path d="M413.921 94.1509H280.441C280.441 77.1647 294.205 63.4011 311.191 63.4011C312.938 63.4011 314.634 63.5414 316.29 63.8226C323.178 50.0389 337.423 40.582 353.887 40.582C363.765 40.582 372.851 43.9954 380.019 49.7178C386.875 55.1592 391.996 62.7284 394.385 71.4222C405.438 73.0887 413.921 82.626 413.921 94.1509Z" fill="#D6EEFF"/>
<path d="M375.698 615.999H509.179C509.179 599.012 495.415 585.249 478.429 585.249C476.682 585.249 474.986 585.389 473.329 585.67C466.442 571.887 452.197 562.43 435.733 562.43C425.854 562.43 416.769 565.843 409.601 571.565C402.744 577.007 397.624 584.576 395.235 593.27C384.181 594.936 375.698 604.474 375.698 615.999Z" fill="#D6EEFF"/>
<path d="M808.929 244.453L833.705 209.334C837.036 204.611 835.909 198.082 831.186 194.75L811.562 180.906C812.446 177.741 813.161 174.546 813.702 171.335L837.305 167.218C842.999 166.225 846.809 160.804 845.816 155.111L838.64 113.969C837.646 108.275 832.226 104.465 826.533 105.458L802.871 109.585C801.348 106.888 799.684 104.257 797.883 101.704L811.727 82.0795C815.058 77.357 813.931 70.8277 809.208 67.4962L775.082 43.4218C770.359 40.0903 763.83 41.2177 760.498 45.9402L746.686 65.5196C742.965 64.473 739.201 63.6652 735.418 63.0925L730.856 39.508C729.758 33.8336 724.268 30.1239 718.594 31.2218L677.591 39.154C671.916 40.252 668.207 45.7419 669.304 51.4158L673.854 74.937C671.579 76.2724 669.357 77.7138 667.188 79.2494L647.608 65.4373C642.886 62.1058 636.356 63.2333 633.025 67.9558L608.95 102.082C605.619 106.805 606.747 113.334 611.469 116.666L631.094 130.51C629.993 134.452 629.154 138.439 628.584 142.447L603.887 147.371C598.296 148.485 594.626 153.87 595.633 159.482L603.115 201.167C604.149 206.933 609.716 210.726 615.461 209.581L641.309 204.428C642.4 206.222 643.555 207.985 644.773 209.712L629.205 231.78C625.874 236.502 627.001 243.032 631.724 246.363L665.85 270.438C670.573 273.769 677.102 272.642 680.434 267.919L695.969 245.897C698.905 246.722 701.866 247.399 704.843 247.929L709.383 273.824C710.395 279.594 715.946 283.41 721.696 282.288L763.295 274.167C768.891 273.075 772.582 267.704 771.598 262.09L767.262 237.36C769.701 235.99 772.087 234.506 774.41 232.909L794.346 246.973C799.069 250.303 805.598 249.176 808.929 244.453Z" fill="#D6EEFF"/>
<path d="M774.244 210.718C803.949 181.014 803.949 132.853 774.244 103.149C744.54 73.4443 696.379 73.4443 666.674 103.149C636.97 132.853 636.97 181.014 666.674 210.718C696.379 240.423 744.54 240.423 774.244 210.718Z" fill="white"/>
<path d="M156.465 159.595L180.478 150.114C183.707 148.839 185.291 145.188 184.016 141.958L178.718 128.54C180.204 127.241 181.616 125.872 182.945 124.437L196.158 130.143C199.346 131.52 203.045 130.052 204.421 126.865L214.367 103.834C215.744 100.647 214.276 96.9473 211.089 95.571L197.843 89.8509C197.966 87.9942 197.997 86.1246 197.933 84.2488L211.351 78.9507C214.581 77.6757 216.164 74.0245 214.89 70.7953L205.676 47.4616C204.402 44.2323 200.75 42.6482 197.521 43.9231L184.134 49.2089C182.609 47.4573 180.984 45.8118 179.273 44.2785L184.749 30.9283C186.066 27.7162 184.531 24.0445 181.319 22.7273L158.109 13.2066C154.897 11.8893 151.226 13.425 149.908 16.6366L144.447 29.9506C142.864 29.8722 141.273 29.8641 139.677 29.9212L134.391 16.5338C133.116 13.3046 129.465 11.7204 126.236 12.9959L102.902 22.2087C99.6729 23.4837 98.0892 27.1348 99.3641 30.3641L104.662 43.7823C102.811 45.3998 101.076 47.1262 99.4693 48.952L85.4416 43.2909C82.2657 42.0093 78.6483 43.5054 77.3062 46.6562L67.3346 70.0599C65.9555 73.2972 67.5021 77.0359 70.765 78.3527L85.4463 84.2778C85.4035 85.539 85.4031 86.8044 85.4459 88.0731L70.3573 94.0306C67.1281 95.3056 65.5445 98.9567 66.8194 102.186L76.0323 125.52C77.3072 128.749 80.9584 130.333 84.1876 129.058L99.2452 123.113C100.448 124.494 101.712 125.809 103.033 127.056L96.7852 141.56C95.3928 144.791 96.9246 148.537 100.182 149.866L123.754 159.489C126.925 160.784 130.548 159.302 131.903 156.157L137.87 142.306C139.546 142.421 141.234 142.462 142.927 142.425L148.308 156.056C149.584 159.286 153.236 160.87 156.465 159.595Z" fill="#D6EEFF"/>
<path d="M183.373 103.246C192.631 79.7711 181.106 53.2352 157.631 43.9768C134.155 34.7184 107.619 46.2435 98.361 69.7188C89.1026 93.1941 100.628 119.73 124.103 128.988C147.578 138.247 174.114 126.722 183.373 103.246Z" fill="white"/>
<path d="M683.956 477.91L684.591 280.768C684.664 258.259 666.476 239.954 643.967 239.882L225.97 238.535C203.462 238.463 185.156 256.651 185.084 279.16L184.448 476.303C184.376 498.811 202.564 517.117 225.073 517.189L643.07 518.535C665.578 518.607 683.884 500.419 683.956 477.91Z" fill="#B5E2FF"/>
<path d="M185.635 253.3L185 450.439C184.927 472.948 203.113 491.261 225.622 491.334L643.627 492.68C666.136 492.753 684.44 474.557 684.512 452.048L685.147 254.909C685.22 232.4 667.034 214.097 644.525 214.024L226.52 212.678C204.011 212.605 185.708 230.791 185.635 253.3ZM644.479 228.238C659.109 228.286 670.98 240.233 670.933 254.863L670.298 452.002C670.251 466.643 658.303 478.503 643.672 478.456L225.667 477.11C211.037 477.063 199.176 465.125 199.223 450.485L199.858 253.346C199.906 238.716 211.843 226.845 226.473 226.892L644.479 228.238Z" fill="#0767E4"/>
<path d="M226.473 226.891L644.478 228.237C659.109 228.284 670.98 240.232 670.932 254.862L670.297 452.001C670.25 466.641 658.302 478.502 643.672 478.455L225.667 477.109C211.036 477.061 199.176 465.124 199.223 450.484L199.858 253.345C199.905 238.715 211.843 226.844 226.473 226.891Z" fill="#EDF8FF"/>
<path d="M525.722 44.248L574.587 223.097L623.452 401.946L444.132 354.84L264.812 307.734L395.267 175.991L525.722 44.248Z" fill="white"/>
<path d="M260.493 316.42C258.044 315.202 256.192 312.988 255.455 310.291C254.542 306.948 255.481 303.372 257.919 300.909L518.83 37.4239C521.269 34.9616 524.836 33.9868 528.187 34.8674C531.54 35.7484 534.167 38.3501 535.08 41.6931L632.811 399.392C633.724 402.735 632.785 406.311 630.346 408.774C627.907 411.237 624.34 412.211 620.989 411.331L262.348 317.117C261.701 316.947 261.079 316.712 260.493 316.42ZM520.794 63.0131L283.527 302.622L609.668 388.298L520.794 63.0131Z" fill="#0767E4"/>
<path d="M607.887 393.588C607.66 393.588 607.433 393.544 607.216 393.456L478.599 340.705C477.697 340.335 477.265 339.303 477.635 338.4C478.005 337.497 479.039 337.068 479.94 337.436L605.727 389.027L569.791 123.222C569.66 122.256 570.338 121.366 571.305 121.235C572.266 121.103 573.161 121.782 573.292 122.749L609.638 391.585C609.722 392.211 609.467 392.834 608.967 393.219C608.652 393.462 608.271 393.588 607.887 393.588Z" fill="#090928"/>
<path d="M408.687 311.89C408.463 311.89 408.236 311.847 408.017 311.757L264.141 252.748C263.558 252.508 263.146 251.976 263.061 251.35C262.976 250.725 263.232 250.102 263.731 249.716L557.126 22.9588C557.626 22.5721 558.292 22.4826 558.876 22.7224C559.46 22.9617 559.872 23.4945 559.957 24.1201L568.074 84.1593C568.204 85.1259 567.527 86.0155 566.56 86.1464C565.598 86.2757 564.704 85.5997 564.573 84.6326L556.866 27.6252L268.312 250.64L409.357 308.488C410.259 308.858 410.691 309.89 410.321 310.793C410.041 311.476 409.382 311.89 408.687 311.89Z" fill="#090928"/>
<path d="M462.647 282.646C458.159 281.437 455.419 276.908 456.431 272.372L483.112 152.837C484.849 145.052 492.726 140.287 500.428 142.361C508.13 144.435 512.548 152.512 510.141 160.116L473.181 276.883C471.778 281.314 467.134 283.855 462.647 282.646ZM450.734 327.166C444.758 325.556 441.218 319.407 442.828 313.432L443.005 312.776C444.614 306.8 450.763 303.261 456.739 304.87C462.715 306.479 466.254 312.629 464.645 318.604L464.468 319.26C462.859 325.235 456.709 328.775 450.734 327.166Z" fill="#090928"/>
<path d="M719.848 578.65C719.853 578.654 768.278 578.65 768.278 578.65V553.837C768.278 553.837 749.406 549.876 749.368 549.868C747.425 549.465 744.454 549.324 742.541 549.887C740.314 550.543 740.041 552.758 739.424 554.654C738.765 556.68 737.801 558.038 736.081 559.329C732.677 561.885 728.56 562.959 724.487 563.916C720.955 564.747 718.924 566.255 718.243 570.005C717.768 572.623 717.63 576.696 719.848 578.65Z" fill="#0767E4"/>
<path d="M769.369 553.752L795.353 457.092C797.474 449.204 792.798 441.091 784.911 438.97C777.022 436.849 768.91 441.525 766.789 449.413L740.804 546.073C738.684 553.961 767.594 560.354 769.369 553.752Z" fill="white"/>
<path d="M762.32 557.694C755.379 557.694 745.526 555.02 741.397 550.883C739.357 548.84 739.317 546.969 739.642 545.759L765.627 449.099C766.735 444.973 769.385 441.526 773.086 439.393C776.787 437.26 781.099 436.696 785.224 437.806C793.741 440.096 798.807 448.887 796.518 457.403L770.533 554.064C770.252 555.109 769.356 556.505 766.685 557.219C765.475 557.541 763.981 557.694 762.32 557.694ZM781.049 439.661C778.699 439.661 776.38 440.276 774.289 441.48C771.145 443.292 768.895 446.22 767.953 449.724L741.969 546.385C741.882 546.709 741.617 547.694 743.102 549.181C747.202 553.288 760.075 556.488 766.063 554.89C766.924 554.66 767.996 554.222 768.206 553.438L794.191 456.778C796.135 449.544 791.832 442.077 784.599 440.132C783.424 439.817 782.233 439.661 781.049 439.661Z" fill="#090928"/>
<path d="M855.327 530.34L873.247 535.932C881.043 538.365 889.856 510.13 882.059 507.697C882.059 507.697 864.139 502.105 864.139 502.104C852.46 498.46 841.988 491.318 834.304 481.801C826.411 472.025 823.376 459.806 821.85 447.588C821.583 445.451 820.676 443.324 819.516 441.51C815.192 434.753 807.077 441.077 801.765 442.806C793.998 445.334 783.525 450.43 786.054 458.197L787.642 462.347C788.741 465.221 791.295 467.286 794.335 467.759L795.451 471.188C804.631 499.39 827.014 521.503 855.327 530.34Z" fill="white"/>
<path d="M874.212 537.284C873.711 537.284 873.266 537.201 872.888 537.082L854.968 531.49C826.283 522.538 803.606 500.134 794.305 471.561L793.408 468.804C790.278 468.064 787.677 465.809 786.517 462.777L784.908 458.569C784.016 455.827 784.054 451.696 789.307 447.587C792.913 444.766 797.869 442.807 801.392 441.66C802.52 441.293 803.821 440.688 805.198 440.047C810.016 437.807 816.613 434.738 820.531 440.86C821.491 442.359 822.706 444.718 823.046 447.438C824.318 457.627 826.854 470.655 835.243 481.044C842.745 490.337 853.135 497.407 864.498 500.954C864.57 500.977 882.418 506.547 882.418 506.547C883.66 506.935 885.284 508.035 885.967 511.072C887.473 517.775 883.432 530.724 878.381 535.38C876.789 536.847 875.355 537.284 874.212 537.284ZM855.686 529.189L873.606 534.782C874.531 535.072 875.588 534.676 876.747 533.608C881.23 529.477 884.952 517.548 883.616 511.6C883.27 510.063 882.626 509.136 881.699 508.847C863.77 503.251 863.77 503.251 863.758 503.247C851.967 499.568 841.166 492.218 833.367 482.559C824.597 471.696 821.967 458.243 820.655 447.737C820.371 445.465 819.327 443.45 818.501 442.16C815.918 438.124 811.779 439.644 806.214 442.232C804.769 442.905 803.403 443.54 802.138 443.952C798.799 445.038 794.121 446.88 790.791 449.485C787.42 452.123 786.241 454.841 787.19 457.795L788.766 461.916C789.709 464.38 791.914 466.163 794.52 466.569L795.251 466.683L796.596 470.815C805.655 498.647 827.745 520.469 855.686 529.189Z" fill="#090928"/>
<path d="M755.214 451.137C758.909 455.456 765.456 459.681 773.355 459.445C787.427 459.023 806.222 450.486 823.913 446.142C823.614 426.027 820.564 416.023 811.751 397.967C806.937 388.105 796.605 376.248 785.66 377.044V382.959C772.679 383.903 762.242 394.017 760.889 406.962L755.214 451.137Z" fill="#0767E4"/>
<path d="M796.599 370.578H775.109L771.454 386.305H800.254L796.599 370.578Z" fill="#0767E4"/>
<path d="M785.366 362.121C792.506 362.121 798.293 356.334 798.293 349.194C798.293 342.055 792.506 336.268 785.366 336.268C778.227 336.268 772.439 342.055 772.439 349.194C772.439 356.334 778.227 362.121 785.366 362.121Z" fill="white"/>
<path d="M785.367 363.327C777.575 363.327 771.236 356.988 771.236 349.196C771.236 341.403 777.575 335.064 785.367 335.064C793.16 335.064 799.499 341.403 799.499 349.196C799.499 356.988 793.16 363.327 785.367 363.327ZM785.367 337.474C778.904 337.474 773.645 342.733 773.645 349.196C773.645 355.66 778.904 360.919 785.367 360.919C791.831 360.919 797.09 355.66 797.09 349.196C797.09 342.733 791.831 337.474 785.367 337.474Z" fill="#0767E4"/>
<path d="M770.609 345.545C774.542 345.849 779.233 344.796 782.652 343.222C784.988 342.147 786.668 340.284 789.029 341.305C791.261 342.27 792.734 344.693 792.741 347.1C792.743 347.712 793.585 349.018 793.568 349.811C793.553 350.514 792.546 350.614 792.741 351.178C794.501 356.265 800.309 354.268 803.089 351.327C806.504 347.715 807.639 340.517 802.281 337.995C801.619 337.684 800.875 337.547 800.148 337.517C798.611 337.452 796.961 338.215 795.599 337.496C793.384 336.326 794.373 333.273 794.106 331.293C792.855 322.005 781.569 322.232 775.293 325.378C771.593 327.233 768.591 330.208 766.735 334.033C765.286 337.02 764.908 343.006 768.385 344.948C769.056 345.323 769.85 345.487 770.609 345.545Z" fill="#0767E4"/>
<path d="M750.644 426.017C732.705 426.017 715.605 421.194 699.534 411.57C694.084 408.306 692.312 401.241 695.576 395.791C698.84 390.341 705.905 388.57 711.354 391.833C731.276 403.764 752.474 406.134 776.157 399.079C782.248 397.266 788.651 400.73 790.465 406.818C792.279 412.907 788.813 419.313 782.725 421.126C771.776 424.388 761.067 426.017 750.644 426.017Z" fill="#0767E4"/>
<path d="M802.854 409.729C797.626 409.729 792.897 406.142 791.661 400.832C790.221 394.645 794.069 388.462 800.256 387.021C824.049 381.483 838.283 366.925 843.772 342.517C845.166 336.318 851.321 332.423 857.519 333.819C863.716 335.212 867.611 341.367 866.217 347.565C862.508 364.054 855.473 377.674 845.305 388.046C835.102 398.456 821.7 405.65 805.472 409.428C804.595 409.631 803.717 409.729 802.854 409.729Z" fill="#0767E4"/>
<path d="M800.254 388.228C799.707 388.228 799.211 387.853 799.081 387.297C798.931 386.649 799.334 386.001 799.982 385.85C810.815 383.326 819.757 378.812 826.556 372.432C827.041 371.976 827.804 372.001 828.259 372.486C828.714 372.971 828.69 373.734 828.205 374.189C821.092 380.862 811.78 385.576 800.528 388.197C800.436 388.218 800.344 388.228 800.254 388.228Z" fill="#090928"/>
<path d="M782.306 342.269C784.957 341.027 788.34 339.419 791.318 340.426C794.23 341.411 796.346 344.914 795.894 347.95C795.665 349.49 794.758 350.362 793.581 350.814L782.306 342.269Z" fill="white"/>
<path d="M793.58 352.021C793.096 352.021 792.639 351.726 792.455 351.247C792.217 350.625 792.527 349.929 793.149 349.691C794.066 349.34 794.559 348.73 794.702 347.774C795.068 345.318 793.271 342.36 790.931 341.57C788.441 340.727 785.364 342.168 782.893 343.326L782.817 343.362C782.215 343.646 781.497 343.384 781.215 342.782C780.932 342.179 781.192 341.462 781.795 341.18L781.871 341.145C784.582 339.874 788.295 338.136 791.704 339.287C795.161 340.455 797.625 344.505 797.086 348.129C796.814 349.956 795.751 351.274 794.012 351.941C793.869 351.995 793.723 352.021 793.58 352.021Z" fill="#0767E4"/>
<path d="M778.836 383.57C778.72 384.043 778.545 384.49 778.306 384.879C777.551 386.103 776.487 386.112 775.232 386.326C773.483 386.626 772.165 388.174 772.067 389.931C771.51 399.864 768.162 426.622 748.278 429.707L749.175 422.34L740.477 418.787C740.477 418.787 761.647 409.428 767.639 388.455L770.088 380.275C770.669 378.336 772.454 377.008 774.478 377.008C776.618 377.008 778.273 378.523 778.811 380.538C779.057 381.458 779.08 382.571 778.836 383.57Z" fill="#090928"/>
<path d="M157.777 276.754L136.116 306.911L138.19 306.909C147.822 306.896 156.886 302.35 162.655 294.637C164.531 294.634 166.144 295.963 166.502 297.804L168.263 306.87L175.966 306.86L176.121 277.821L157.777 276.754Z" fill="#0767E4"/>
<path d="M230.984 166.719C230.416 166.797 229.835 166.833 229.244 166.824C199.631 166.398 174.137 154.407 153.468 131.186C149.245 126.44 149.667 119.17 154.413 114.946C159.158 110.722 166.429 111.145 170.653 115.891C187.083 134.351 206.357 143.487 229.575 143.821C235.927 143.913 241.002 149.136 240.911 155.488C240.828 161.249 236.523 165.961 230.984 166.719Z" fill="white"/>
<path d="M229.411 168.03C229.349 168.03 229.287 168.03 229.226 168.029C199.262 167.597 173.47 155.471 152.568 131.987C150.311 129.451 149.177 126.189 149.374 122.8C149.571 119.412 151.076 116.303 153.611 114.046C156.146 111.789 159.406 110.655 162.797 110.852C166.186 111.049 169.295 112.554 171.552 115.09C187.745 133.283 206.73 142.287 229.591 142.617C232.986 142.665 236.157 144.033 238.522 146.467C240.888 148.902 242.163 152.112 242.114 155.505C242.024 161.735 237.309 167.069 231.146 167.912C230.574 167.991 229.991 168.03 229.411 168.03ZM162.046 113.24C159.521 113.24 157.115 114.153 155.213 115.846C153.159 117.674 151.939 120.194 151.779 122.94C151.619 125.686 152.539 128.33 154.367 130.385C174.802 153.344 200 165.198 229.26 165.619C229.786 165.625 230.306 165.595 230.819 165.525C235.812 164.842 239.632 160.519 239.705 155.471C239.745 152.72 238.711 150.119 236.794 148.146C234.878 146.174 232.307 145.065 229.557 145.026C205.982 144.686 186.42 135.418 169.752 116.692C167.923 114.637 165.403 113.418 162.658 113.258C162.454 113.246 162.249 113.24 162.046 113.24Z" fill="#0767E4"/>
<path d="M254.559 191.974C261.972 199.98 261.622 213.198 254.785 221.432C247.838 229.799 236.738 230.298 226.686 230.956C218.496 231.491 210.31 232.026 202.12 232.561C197.395 232.869 192.472 232.812 187.782 233.5C179.266 234.746 171.352 228.856 170.106 220.34C168.856 211.826 174.749 203.911 183.264 202.661C196.022 199.836 208.778 197.008 221.537 194.178C227.228 192.917 233.206 190.819 239.133 190.984C240.031 191.007 240.929 191.081 241.824 191.221C245.002 191.718 247.995 189.972 251.132 190.276C252.623 190.42 253.713 191.06 254.559 191.974Z" fill="#090928"/>
<path d="M197.494 217.475L176.275 278.174C165.572 281.281 159.268 279.287 155.625 274.205C155.648 274.097 155.674 273.987 155.701 273.876L167.391 209.411C169.617 201.101 178.161 196.166 186.475 198.391C194.789 200.619 199.72 209.162 197.494 217.475Z" fill="#090928"/>
<path d="M228.269 89.7915C226.155 88.4119 223.109 88.2449 220.798 89.135C218.347 90.0784 216.223 91.9008 213.633 92.3333C209.043 93.0997 201.373 87.7692 197.611 92.3062C194.786 95.7143 198.008 101.642 195.139 105.014C193.312 107.161 190.035 107.05 187.22 106.884C180.013 106.46 168.466 108.023 168.326 117.434C168.225 124.195 174.487 130.737 179.605 134.39C191.249 142.701 208.877 145.353 221.246 137.042C231.556 130.116 228.543 121.051 224.876 111.485C223.24 107.217 224.686 104.273 227.22 100.885C229.753 97.4977 233.131 93.8147 228.847 90.2192C228.663 90.0655 228.47 89.9228 228.269 89.7915Z" fill="#0767E4"/>
<path d="M209.733 139.518C209.934 139.373 210.137 139.231 210.342 139.092L209.388 132.032L223.836 128.432C223.836 128.432 225.997 134.279 226.013 134.323C226.172 134.74 227.903 134.721 228.314 134.806C241.851 137.602 243.732 151.935 239.046 162.93C238.607 163.961 239.271 169.599 239.936 170.167C245.75 175.134 253.978 181.121 252.477 189.875C251.008 198.448 240.941 202.562 233.408 204.062C218.178 207.093 201.781 197.66 204.97 180.14C205.809 175.536 206.397 171.258 206.414 168.254C206.417 167.768 205.92 166.862 205.201 165.808C199.39 157.283 201.366 145.553 209.733 139.518Z" fill="white"/>
<path d="M227.666 205.836C220.587 205.836 213.885 203.35 209.297 198.837C204.401 194.02 202.444 187.303 203.787 179.926C204.717 174.821 205.196 170.892 205.211 168.249C205.211 168.25 205.21 168.251 205.21 168.251C205.205 168.251 205.105 167.805 204.208 166.488C198.041 157.444 200.205 144.908 209.03 138.544L209.029 138.544C209.037 138.539 209.044 138.533 209.052 138.528L208.051 131.126L224.593 127.004L224.967 128.016C224.967 128.016 226.472 132.087 226.981 133.464C227.259 133.507 227.648 133.536 227.848 133.551C228.153 133.574 228.373 133.59 228.558 133.628C233.926 134.737 238.002 137.69 240.344 142.166C243.357 147.923 243.285 156.062 240.156 163.405C239.923 164.209 240.396 168.411 240.826 169.345C241.281 169.733 241.75 170.127 242.227 170.527C247.987 175.365 255.156 181.384 253.665 190.082C251.825 200.821 237.875 204.404 233.643 205.246C231.648 205.642 229.642 205.836 227.666 205.836ZM210.727 132.941L211.637 139.671L211.021 140.09C210.825 140.223 210.631 140.358 210.439 140.497H210.439C202.663 146.105 200.76 157.155 206.197 165.13C207.456 166.975 207.623 167.749 207.619 168.262C207.604 171.045 207.111 175.114 206.157 180.357C204.624 188.776 207.937 194.119 210.987 197.119C216.294 202.34 224.795 204.549 233.173 202.881C237.024 202.114 249.71 198.897 251.29 189.672C252.547 182.338 246.242 177.043 240.677 172.37C240.157 171.933 239.647 171.505 239.153 171.083C237.939 170.045 237.379 163.772 237.938 162.459C240.792 155.763 240.896 148.414 238.209 143.281C236.184 139.412 232.773 136.957 228.07 135.986C227.99 135.973 227.841 135.965 227.667 135.952C226.491 135.864 225.276 135.773 224.887 134.751C224.856 134.668 223.696 131.527 223.08 129.862L210.727 132.941Z" fill="#0767E4"/>
<path d="M220.352 123.222C226.853 120.273 229.733 112.612 226.784 106.11C223.835 99.6081 216.173 96.7283 209.671 99.6775C203.17 102.627 200.29 110.288 203.239 116.79C206.188 123.292 213.85 126.172 220.352 123.222Z" fill="white"/>
<path d="M214.997 125.58C208.048 125.58 201.973 120.437 201.005 113.363C199.949 105.643 205.37 98.5025 213.09 97.446C220.814 96.3899 227.95 101.811 229.007 109.531C230.064 117.252 224.642 124.392 216.922 125.448C216.275 125.537 215.632 125.58 214.997 125.58ZM215.014 99.7242C214.487 99.7242 213.954 99.7599 213.417 99.8331C207.013 100.709 202.516 106.633 203.392 113.036C204.269 119.44 210.192 123.939 216.596 123.061C223 122.185 227.497 116.261 226.62 109.858C225.817 103.991 220.778 99.7242 215.014 99.7242Z" fill="#090928"/>
<path d="M141.39 118.95C140.989 118.95 140.596 118.75 140.368 118.384C138.959 116.131 137.697 113.947 136.584 112.02C135.822 110.7 135.164 109.561 134.572 108.594C133.768 107.279 131.32 103.279 134.681 100.591C135.501 99.9353 136.558 99.5681 137.665 99.54L136.197 97.6423C134.513 95.464 134.914 92.3214 137.092 90.6364C139.114 89.0717 141.968 89.3058 143.715 91.0911C143.99 90.0246 144.608 89.0855 145.493 88.4005C146.585 87.5556 147.874 87.2483 149.22 87.5113C153.73 88.3938 158.371 95.4612 162.317 102.257C162.651 102.833 162.455 103.57 161.88 103.904C161.304 104.238 160.567 104.043 160.233 103.467C158.201 99.9667 152.803 90.6678 148.757 89.8762C148.086 89.7444 147.517 89.8814 146.967 90.3067C146.421 90.7291 146.072 91.3385 145.984 92.0236C145.896 92.7081 146.081 93.3865 146.504 93.9326L150.599 99.2274C150.842 99.5414 150.914 99.9548 150.793 100.333C150.672 100.71 150.372 101.005 149.991 101.118C149.86 101.158 149.727 101.198 149.596 101.244C149.109 101.411 148.567 101.249 148.252 100.841L142.192 93.0059C141.32 91.8785 139.694 91.6706 138.566 92.5426C137.439 93.4141 137.231 95.0411 138.103 96.1685L144.199 104.05C144.509 104.452 144.535 105.005 144.262 105.434L144.124 105.652C143.919 105.992 143.559 106.209 143.162 106.232C142.757 106.254 142.383 106.08 142.14 105.766C142.14 105.766 139.914 102.889 139.912 102.886C139.529 102.391 138.891 102.057 138.165 101.97C137.418 101.882 136.696 102.064 136.185 102.473C135.302 103.18 134.744 104.258 136.627 107.337C137.234 108.33 137.932 109.537 138.67 110.816C139.773 112.726 141.024 114.89 142.411 117.108C142.763 117.672 142.592 118.415 142.028 118.768C141.83 118.891 141.609 118.95 141.39 118.95Z" fill="#090928"/>
<path d="M148.84 215.873C148.767 215.873 148.693 215.867 148.618 215.853C146.004 215.366 143.541 214.817 141.368 214.333C139.882 214.002 138.599 213.716 137.487 213.497C135.975 213.2 131.373 212.296 131.667 208.004C131.739 206.956 132.183 205.929 132.912 205.094L130.522 204.891C129.193 204.779 127.987 204.155 127.127 203.135C126.267 202.115 125.855 200.822 125.969 199.492C126.081 198.163 126.705 196.957 127.725 196.097C128.595 195.363 129.665 194.956 130.786 194.923C130.206 194.026 129.908 192.938 130.005 191.793C130.122 190.417 130.767 189.26 131.872 188.447C135.574 185.723 143.918 187.086 151.592 188.779C152.241 188.922 152.652 189.565 152.509 190.215C152.365 190.865 151.725 191.275 151.073 191.132C147.12 190.26 136.62 187.944 133.3 190.388C132.749 190.793 132.465 191.305 132.406 191.997C132.286 193.417 133.343 194.671 134.763 194.792L141.433 195.358C141.829 195.392 142.183 195.618 142.379 195.963C142.575 196.308 142.588 196.728 142.414 197.085C142.354 197.209 142.295 197.332 142.24 197.459C142.033 197.932 141.545 198.221 141.034 198.177L131.164 197.339C130.473 197.283 129.806 197.494 129.278 197.939C128.751 198.384 128.428 199.008 128.37 199.696C128.311 200.383 128.524 201.053 128.969 201.581C129.414 202.108 130.038 202.431 130.726 202.49L140.654 203.333C141.16 203.376 141.585 203.732 141.716 204.222L141.737 204.303C141.752 204.359 141.766 204.414 141.783 204.469C141.895 204.851 141.812 205.263 141.56 205.572C141.309 205.88 140.924 206.042 140.525 206.01C140.525 206.01 136.964 205.708 136.902 205.702C136.27 205.649 135.595 205.892 135.04 206.368C134.469 206.858 134.116 207.514 134.071 208.167C133.994 209.296 134.411 210.436 137.952 211.132C139.093 211.356 140.453 211.659 141.892 211.98C144.046 212.46 146.487 213.004 149.059 213.483C149.713 213.605 150.145 214.235 150.023 214.889C149.915 215.469 149.409 215.873 148.84 215.873Z" fill="#090928"/>
<path d="M212.519 159.806C214.115 157.529 215.619 155.135 217.033 152.623L212.519 159.806Z" fill="white"/>
<path d="M213.505 160.499L211.532 159.116C213.097 156.883 214.595 154.5 215.983 152.033L218.082 153.215C216.655 155.751 215.115 158.201 213.505 160.499Z" fill="#0767E4"/>
<path d="M210.482 162.583C211.177 161.678 211.856 160.752 212.519 159.807L210.482 162.583Z" fill="white"/>
<path d="M211.438 163.316L209.526 161.85C210.209 160.96 210.884 160.04 211.531 159.115L213.504 160.498C212.837 161.451 212.142 162.399 211.438 163.316Z" fill="#0767E4"/>
<path d="M230 174.892C215.576 194.494 195.3 207.437 169.562 213.437C169.344 213.487 169.125 213.532 168.909 213.57C162.945 214.605 157.139 210.815 155.748 204.846C154.306 198.659 158.152 192.474 164.339 191.032C184.178 186.407 199.376 177.058 210.483 162.582L230 174.892Z" fill="white"/>
<path d="M166.935 214.944C161.138 214.944 155.933 210.95 154.573 205.118C152.983 198.294 157.24 191.448 164.064 189.857C183.707 185.279 198.577 176.117 209.526 161.848L211.437 163.314C200.136 178.044 184.819 187.493 164.611 192.204C159.081 193.493 155.631 199.041 156.92 204.571C158.158 209.882 163.332 213.313 168.701 212.381C168.897 212.348 169.093 212.307 169.288 212.262C194.689 206.341 214.789 193.528 229.028 174.177L230.969 175.605C216.38 195.431 195.811 208.554 169.834 214.609C169.592 214.665 169.352 214.714 169.112 214.756C168.382 214.882 167.654 214.944 166.935 214.944Z" fill="#0767E4"/>
<path d="M203.726 113.507C201.595 112.744 198.626 110.461 198.304 108.107C197.803 104.451 200.362 101.081 204.019 100.58C204.792 100.475 205.558 100.483 206.29 100.596L208.038 100.975L203.726 113.507Z" fill="white"/>
<path d="M202.438 112.905C200.307 112.141 198.628 110.465 198.306 108.111C197.805 104.455 200.364 101.085 204.021 100.584C204.794 100.479 205.56 100.487 206.292 100.6L208.039 100.979L202.438 112.905Z" fill="white"/>
<path d="M202.437 114.107C202.303 114.107 202.166 114.085 202.031 114.037C199.31 113.062 197.471 110.908 197.111 108.272C196.521 103.963 199.547 99.978 203.855 99.3886C204.734 99.2682 205.616 99.2744 206.475 99.4071C206.498 99.411 206.523 99.4152 206.546 99.4205L208.293 99.7991C208.943 99.94 209.356 100.582 209.215 101.232C209.074 101.883 208.434 102.295 207.782 102.154L206.072 101.783C205.455 101.692 204.819 101.689 204.182 101.776C201.189 102.185 199.088 104.953 199.497 107.945C199.737 109.699 200.956 111.092 202.843 111.768C203.469 111.992 203.795 112.682 203.57 113.308C203.395 113.8 202.931 114.107 202.437 114.107Z" fill="#090928"/>
<path d="M223.187 119.767C225.418 120.146 229.125 119.611 230.559 117.717C232.787 114.774 232.207 110.583 229.264 108.356C228.642 107.885 227.97 107.516 227.276 107.256L225.568 106.73L223.187 119.767Z" fill="white"/>
<path d="M224.608 119.87C226.84 120.249 229.125 119.61 230.559 117.717C232.787 114.774 232.208 110.583 229.265 108.356C228.643 107.885 227.971 107.516 227.277 107.256L225.568 106.73L224.608 119.87Z" fill="white"/>
<path d="M225.828 121.18C225.362 121.18 224.887 121.14 224.407 121.059C223.751 120.947 223.31 120.325 223.421 119.669C223.532 119.014 224.154 118.573 224.811 118.683C226.788 119.02 228.531 118.401 229.599 116.99C231.422 114.582 230.946 111.14 228.538 109.316C228.026 108.929 227.47 108.619 226.887 108.397L225.214 107.882C224.578 107.686 224.221 107.012 224.417 106.376C224.613 105.74 225.288 105.383 225.922 105.579L227.632 106.105C227.655 106.112 227.678 106.119 227.701 106.128C228.514 106.433 229.284 106.859 229.992 107.394C233.46 110.02 234.145 114.977 231.52 118.444C230.186 120.207 228.123 121.18 225.828 121.18Z" fill="#090928"/>
<path d="M205.439 92.0547C202.135 97.7063 206.835 104.95 211.419 108.325C217.576 112.86 229.67 114.657 233.911 106.532C239.157 96.4803 226.456 93.9162 219.144 95.0522C209.087 96.615 205.439 92.0547 205.439 92.0547Z" fill="#0767E4"/>
<path d="M202.837 87.5735C202.282 90.553 204.46 93.3464 207.485 93.5338L217.482 94.1528L218.217 87.9236L209.99 83.9542C206.995 82.509 203.447 84.3048 202.837 87.5735Z" fill="#090928"/>
<path d="M228.052 82.0222C229.807 84.4931 229.003 87.943 226.336 89.3835L217.524 94.1427L214.241 88.7984L220.041 81.741C222.152 79.1716 226.127 79.3115 228.052 82.0222Z" fill="#090928"/>
<path d="M225.28 268.236L225.187 304.841L226.88 303.642C234.741 298.076 239.522 289.135 239.786 279.507C241.316 278.423 243.401 278.578 244.754 279.875L251.423 286.265L257.709 281.814L241.087 258.004L225.28 268.236Z" fill="#0767E4"/>
<path d="M241.579 259.34C237.918 266.05 234.729 270.44 224.596 270.364L189.062 225.998C184.468 218.722 186.644 209.097 193.924 204.505C201.2 199.911 210.825 202.087 215.417 209.367L241.579 259.34Z" fill="#090928"/>
<path d="M193.069 206.29C192.696 206.29 192.328 206.117 192.092 205.792C191.702 205.254 191.822 204.501 192.36 204.109C192.658 203.893 192.968 203.684 193.28 203.487C193.323 203.46 193.367 203.435 193.413 203.414L199.775 200.444C200.379 200.162 201.095 200.423 201.377 201.026C201.658 201.629 201.398 202.345 200.794 202.627L194.502 205.564C194.255 205.722 194.011 205.888 193.775 206.059C193.561 206.215 193.314 206.29 193.069 206.29Z" fill="#0767E4"/>
<path d="M208.079 250.947C207.726 250.947 207.376 250.793 207.138 250.496L188.12 226.751C188.092 226.716 188.066 226.679 188.042 226.641C183.333 219.183 185.23 209.285 192.36 204.109C192.9 203.718 193.653 203.837 194.043 204.376C194.434 204.914 194.314 205.667 193.776 206.058C187.688 210.479 186.056 218.918 190.044 225.298L209.018 248.989C209.434 249.508 209.35 250.267 208.831 250.682C208.609 250.861 208.343 250.947 208.079 250.947Z" fill="#0767E4"/>
<path d="M234.42 246.869C233.983 246.869 233.56 246.629 233.347 246.213L223.128 226.254C222.824 225.662 223.059 224.936 223.651 224.632C224.243 224.33 224.97 224.563 225.273 225.156L235.492 245.114C235.795 245.706 235.561 246.432 234.968 246.736C234.793 246.826 234.605 246.869 234.42 246.869Z" fill="#0767E4"/>
<path d="M131.972 458.516C130.19 458.516 128.416 458.374 126.658 458.089C114.654 456.147 104.242 447.647 99.4853 435.906C98.089 432.459 97.14 428.736 96.6643 424.84C95.9012 418.587 100.351 412.899 106.604 412.137C112.856 411.373 118.544 415.824 119.308 422.077C119.54 423.982 119.984 425.753 120.628 427.34C122.383 431.673 126.18 434.904 130.301 435.57C138.921 436.968 149.767 426.832 156.192 416.827C159.596 411.527 166.652 409.99 171.953 413.394C177.253 416.797 178.79 423.854 175.387 429.154C172.395 433.813 166.012 442.642 156.879 449.431C148.813 455.427 140.3 458.516 131.972 458.516Z" fill="#090928"/>
<path d="M91.3565 492.111C91.3565 492.111 84.9575 486.198 82.7312 481.854C80.2474 477.009 78.5495 468.364 81.2987 461.92C86.5127 449.7 109.491 464.512 109.491 464.512L91.3565 492.111Z" fill="#0767E4"/>
<path d="M168.645 571.443C168.405 571.46 169.133 575.516 169.275 575.94C169.68 577.153 170.336 578.173 171.296 579.02C174.064 581.464 176.664 581.865 179.626 583.945C184.371 587.277 186.695 595.757 185.054 600.844L174.854 601.109C167.227 601.274 163.792 598.096 161.044 592.431C158.336 592.403 155.995 594.316 155.483 596.975L154.6 601.562L146.966 601.764L146.012 572.986L168.645 571.443Z" fill="#090928"/>
<path d="M33.6798 567.778C33.6213 567.545 29.7579 568.979 29.3655 569.194C28.2437 569.807 27.356 570.633 26.6924 571.728C24.7766 574.885 24.8423 577.515 23.3195 580.798C20.88 586.058 12.9449 589.846 7.64774 589.132L5.58119 579.14C4.06934 571.663 6.58925 567.72 11.6781 564.012C11.2261 561.342 8.92933 559.376 6.22104 559.343L1.55038 559.286L0 551.807L28.1552 545.775L33.6798 567.778Z" fill="#090928"/>
<path d="M36.9982 567.523C28.6654 570.924 21.599 548.932 30.9869 543.588C36.2427 540.597 84.1429 512.824 88.4249 496.632C89.0362 494.32 90.1993 492.183 90.7288 489.85C91.2606 487.506 91.5504 485.114 91.9347 482.741C93.5788 472.598 99.1339 461.202 111.547 464.329C121.417 466.817 123.282 476.911 121.65 485.717C119.392 497.897 114.816 509.961 107.9 520.444C95.3228 539.505 46.9322 563.706 39.4029 566.853C38.6128 567.183 37.7546 567.215 36.9982 567.523Z" fill="#0767E4"/>
<path d="M146.169 572.246L96.3955 485.328C92.6083 478.169 95.3413 469.295 102.5 465.508C109.658 461.721 118.532 464.453 122.32 471.612L168.79 569.131C173.859 577.028 150.423 578.629 146.169 572.246Z" fill="#0767E4"/>
<path d="M112.261 515.505L125.105 489.535C125.105 489.535 137.17 483.092 129.6 470.852L114.871 477.206L112.261 515.505Z" fill="#0767E4"/>
<path d="M112.261 516.71C112.082 516.71 111.899 516.669 111.728 516.584C111.131 516.289 110.887 515.566 111.182 514.97L124.026 489C124.137 488.774 124.317 488.589 124.538 488.471C124.584 488.447 129.294 485.859 130.571 481.084C131.291 478.39 130.796 475.465 129.1 472.379L115.35 478.312C114.739 478.577 114.03 478.294 113.766 477.683C113.503 477.072 113.784 476.363 114.395 476.1L129.124 469.745C129.673 469.509 130.312 469.709 130.626 470.218C133.107 474.23 133.869 478.103 132.892 481.73C131.541 486.743 127.29 489.631 126.025 490.395L113.342 516.039C113.132 516.464 112.705 516.71 112.261 516.71Z" fill="white"/>
<path d="M117.195 405.041C116.978 404.925 116.759 404.813 116.539 404.704L116.527 397.64L101.849 396.045C101.849 396.045 100.512 402.08 100.502 402.125C100.402 402.556 98.6981 402.771 98.3066 402.909C92.6645 404.903 88.2669 410.532 87.3369 416.397C86.6737 420.578 87.4686 424.882 88.8796 428.829C89.7526 431.271 90.8872 433.586 92.2192 435.806C92.42 436.17 88.0961 441.493 87.6694 442.137C86.0291 444.613 84.4978 447.17 83.1829 449.835C80.7148 454.84 78.7748 460.401 79.3971 466.061C79.5174 467.155 79.9479 473.337 81.3547 473.763C109.419 482.269 129.988 484.596 136.692 474.179C136.692 474.179 125.822 443.37 124.318 432.825C124.25 432.348 124.616 431.391 125.181 430.259C129.744 421.103 126.226 409.845 117.195 405.041Z" fill="#090928"/>
<path d="M117.194 405.041C116.977 404.925 116.759 404.813 116.538 404.704L116.527 397.64L101.849 396.045C101.849 396.045 100.511 402.08 100.501 402.125C100.402 402.556 98.6978 402.771 98.3063 402.909C92.6642 404.903 88.2666 410.532 87.3366 416.397C86.6734 420.578 87.4683 424.882 88.8793 428.829C89.7523 431.271 90.8869 433.586 92.2189 435.806C92.4316 436.16 87.651 438.457 87.1658 438.768C78.4429 444.354 74.394 455.112 74.453 465.135C74.4649 467.177 71.7785 471.541 74.2404 472.444C108.543 485.028 133.815 483.332 140.519 472.915C140.519 472.915 125.822 443.37 124.318 432.825C124.25 432.348 124.616 431.391 125.18 430.259C129.744 421.103 126.226 409.845 117.194 405.041Z" fill="#090928"/>
<path d="M119.334 385.36C124.34 380.355 124.34 372.239 119.334 367.233C114.328 362.228 106.213 362.228 101.207 367.233C96.2014 372.239 96.2014 380.355 101.207 385.36C106.213 390.366 114.329 390.366 119.334 385.36Z" fill="white"/>
<path d="M110.276 390.323C102.544 390.323 96.2529 384.032 96.2529 376.3C96.2529 368.568 102.543 362.277 110.276 362.277C118.008 362.277 124.298 368.568 124.298 376.3C124.298 384.032 118.008 390.323 110.276 390.323ZM110.276 364.687C103.873 364.687 98.6629 369.897 98.6629 376.3C98.6629 382.703 103.873 387.913 110.276 387.913C116.68 387.913 121.889 382.703 121.889 376.3C121.889 369.897 116.68 364.687 110.276 364.687Z" fill="#0767E4"/>
<path d="M99.4835 356.66C95.4779 361.768 99.1215 369.516 103.171 373.448C108.132 378.266 118.923 381.804 124.521 376.145C127.001 373.639 128.257 369.336 125.989 366.316C124.135 363.846 120.824 362.645 117.882 362.159C113.174 361.381 108.107 361.958 103.666 359.928C102.554 359.419 101.52 358.75 100.613 357.929C100.532 357.856 99.3846 356.786 99.4835 356.66Z" fill="#090928"/>
<path d="M97.0119 348.009C95.1947 347.724 93.3289 347.995 91.495 348.27C91.1463 348.322 86.5422 349.136 86.6844 349.531C86.6844 349.531 85.8191 347.145 85.4647 346.413C84.646 344.72 82.6551 343.853 80.775 343.829C78.8949 343.805 76.1909 344.847 74.4293 345.503C75.1325 345.241 74.0854 341.721 73.809 341.237C72.495 338.934 67.9119 338.895 65.6936 339.482C63.7041 340.009 61.8845 341.693 61.8374 343.751C61.8036 345.211 62.6447 346.439 63.6394 347.429C64.6775 348.461 66.0081 349.359 67.361 349.923C67.9757 350.179 70.1407 351.082 70.5531 350.13C69.5051 352.55 71.0978 356.72 73.5088 357.787C75.6391 358.731 78.6628 358.34 80.7988 357.639C80.5167 357.732 82.195 362.446 82.3906 362.894C84.8087 368.436 90.8285 371.814 96.7484 369.669C103.173 367.342 106.803 358.489 103.341 352.451C102.31 350.653 100.625 349.188 98.6565 348.44C98.1137 348.235 97.5652 348.096 97.0119 348.009Z" fill="#090928"/>
<path d="M98.3249 380.941C94.6651 380.941 91.6909 378.114 91.6909 374.454C91.6909 370.795 94.6575 367.828 98.3173 367.828C101.977 367.828 105.141 370.312 105.141 373.972L98.3249 380.941Z" fill="white"/>
<path d="M98.3234 382.147C93.9277 382.147 90.4844 378.768 90.4844 374.456C90.4844 370.138 93.9976 366.625 98.3153 366.625C102.817 366.625 106.343 369.853 106.343 373.973C106.343 374.639 105.804 375.178 105.138 375.178C104.473 375.178 103.933 374.639 103.933 373.973C103.933 370.765 101.039 369.034 98.3148 369.034C95.3253 369.034 92.8935 371.466 92.8935 374.455C92.8935 377.417 95.2782 379.737 98.3224 379.737C98.9875 379.737 99.5274 380.277 99.5274 380.942C99.5284 381.607 98.9884 382.147 98.3234 382.147Z" fill="#0767E4"/>
<path d="M140.266 473.6C139.8 473.6 139.356 473.328 139.159 472.873C138.576 471.522 124.871 439.751 123.824 436.263C122.796 432.835 122.872 432.117 123.613 430.76L123.678 430.641C123.731 430.541 123.789 430.407 123.853 430.262C123.932 430.085 124.017 429.896 124.105 429.719C128.371 421.159 125.018 410.565 116.631 406.103C116.422 405.992 116.213 405.885 116.004 405.78C115.408 405.483 115.165 404.76 115.462 404.164C115.759 403.568 116.481 403.326 117.078 403.623C117.308 403.737 117.537 403.855 117.763 403.976C127.292 409.044 131.105 421.075 126.261 430.794C126.189 430.939 126.12 431.094 126.056 431.239C125.963 431.448 125.875 431.643 125.797 431.786L125.728 431.913C125.384 432.542 125.281 432.732 126.133 435.57C126.938 438.255 136.453 460.519 141.372 471.918C141.636 472.528 141.354 473.237 140.744 473.501C140.587 473.569 140.425 473.6 140.266 473.6Z" fill="#0767E4"/>
<path d="M104.678 355.127C104.678 355.127 113.979 357.152 110.277 363.034C106.575 368.916 96.1738 368.184 96.1738 368.184L95.582 367.542C100.091 364.71 104.034 360.413 104.678 355.127Z" fill="#0767E4"/>
<path d="M62.0406 486.189C61.4236 486.189 60.7985 486.139 60.1691 486.035C53.9543 485.009 49.7474 479.139 50.7731 472.924C55.5556 443.95 71.0708 420.718 96.8874 403.874C102.163 400.432 109.23 401.919 112.672 407.194C116.114 412.47 114.628 419.537 109.353 422.979C88.8296 436.37 77.0307 453.922 73.2806 476.639C72.3586 482.225 67.5229 486.189 62.0406 486.189Z" fill="#090928"/>
<path d="M62.0406 486.189C61.4236 486.189 60.7985 486.139 60.1691 486.035C53.9543 485.009 49.7474 479.139 50.7731 472.924C55.5556 443.95 71.0708 420.718 96.8874 403.874C102.163 400.432 109.23 401.919 112.672 407.194C116.114 412.47 114.628 419.537 109.353 422.979C88.8296 436.37 77.0307 453.922 73.2806 476.639C72.3586 482.225 67.5229 486.189 62.0406 486.189Z" fill="#090928"/>
<path d="M57.993 515.653C57.9145 515.653 57.8355 515.651 57.7556 515.647C55.2233 515.528 53.2186 513.519 53.0407 511.05C52.1744 511.653 51.1116 511.985 49.9775 511.932C48.606 511.867 47.4329 511.269 46.5846 510.202C43.7455 506.632 44.7874 498.311 46.1803 490.642C46.2992 489.988 46.9291 489.551 47.5808 489.673C48.2354 489.792 48.6697 490.418 48.5508 491.073C47.9024 494.643 45.9281 505.507 48.4704 508.703C48.8909 509.232 49.4062 509.493 50.0912 509.526C51.4917 509.595 52.6953 508.502 52.7614 507.096L53.0754 500.466C53.0944 500.07 53.3071 499.708 53.6444 499.499C53.9812 499.29 54.4003 499.26 54.7638 499.42C54.8889 499.475 55.0145 499.53 55.1429 499.581C55.6229 499.769 55.9298 500.243 55.9055 500.759L55.4407 510.57C55.3741 511.975 56.464 513.174 57.8698 513.24C59.2784 513.301 60.4739 512.217 60.5405 510.811L61.0076 500.942C61.0319 500.435 61.3716 499.997 61.8568 499.847L62.1032 499.772C62.479 499.646 62.8939 499.715 63.2107 499.955C63.5266 500.195 63.7045 500.576 63.686 500.972C63.686 500.972 63.5152 504.582 63.5147 504.586C63.4857 505.195 63.7507 505.856 64.2416 506.387C64.7463 506.932 65.4062 507.257 66.0527 507.277C67.163 507.301 68.2791 506.857 68.8361 503.33C69.016 502.19 69.2662 500.83 69.5307 499.391C69.926 497.24 70.3746 494.802 70.7538 492.237C70.8513 491.578 71.4612 491.122 72.1215 491.221C72.7799 491.318 73.2347 491.93 73.1372 492.589C72.7518 495.195 72.2994 497.656 71.9003 499.826C71.6272 501.312 71.3913 502.596 71.2157 503.706C70.9769 505.218 70.2676 509.806 65.9775 509.685C64.9409 509.653 63.911 509.254 63.0585 508.569L62.9472 510.926C62.8211 513.579 60.6223 515.653 57.993 515.653Z" fill="#0767E4"/>
<path d="M74.2437 473.193C74.1728 473.193 74.1014 473.187 74.0291 473.174C73.3745 473.056 72.9392 472.43 73.0568 471.775C74.1809 465.523 76.5167 459.112 79.9999 452.72C84.5269 444.412 90.5205 436.878 97.8143 430.326C98.31 429.881 99.0712 429.922 99.5156 430.417C99.9604 430.912 99.9194 431.674 99.4247 432.118C92.335 438.487 86.5116 445.806 82.1155 453.873C78.7559 460.037 76.5062 466.204 75.4282 472.201C75.3231 472.784 74.8155 473.193 74.2437 473.193Z" fill="#0767E4"/>
<path d="M193.93 330.696L149.15 343.631L166.863 404.951L211.643 392.016L193.93 330.696Z" fill="#090928"/>
<path d="M176.93 353.885L187.271 363.865L197.612 373.847L183.797 377.811L169.984 381.776L173.457 367.83L176.93 353.885Z" fill="#0767E4"/>
<path d="M653.983 402.049C654.21 402.515 654.482 402.967 654.804 403.399C655.762 404.685 657.018 405.621 658.404 406.18C661.039 407.242 664.149 406.947 666.593 405.127C682.394 393.37 694.641 377.502 702.008 359.236L703.383 355.827C705.124 351.511 703.037 346.601 698.721 344.86C698.283 344.684 697.838 344.546 697.393 344.446C693.441 343.566 689.319 345.644 687.755 349.522L686.38 352.931C680.171 368.324 669.85 381.698 656.534 391.606C653.232 394.063 652.244 398.477 653.983 402.049Z" fill="#090928"/>
<path d="M715.795 334.02L701.067 370.532L704.572 371.946C705.198 372.198 705.829 372.417 706.464 372.6C714.652 374.978 723.433 371.787 728.143 364.86C728.863 363.803 729.488 362.659 730.001 361.433C730.053 361.311 730.101 361.19 730.151 361.067C734.016 351.625 729.959 340.924 721.115 336.274C720.531 335.966 719.925 335.685 719.298 335.432L715.795 334.02Z" fill="#090928"/>
<path d="M623.528 318.078L613.571 361.567C653.284 355.785 665.639 358.788 701.037 370.615L715.797 334.022C711.479 331.966 707.476 330.017 703.724 328.114C699.044 325.738 694.757 323.436 690.744 321.087C672.858 310.623 660.407 299.259 642.899 276.674L633.088 297.642L623.528 318.078Z" fill="#B5E2FF"/>
<path d="M646.95 327.527C656.43 304.026 653.589 280.729 640.605 275.491C627.621 270.253 609.41 285.059 599.93 308.559C590.451 332.06 593.291 355.357 606.276 360.595C619.26 365.833 637.47 351.027 646.95 327.527Z" fill="#090928"/>
<path d="M605.583 362.256C598.668 359.466 594.154 352.142 592.872 341.635C591.637 331.509 593.543 319.521 598.24 307.877C602.936 296.234 609.882 286.277 617.796 279.842C626.011 273.164 634.345 271.027 641.257 273.812C648.172 276.601 652.686 283.925 653.967 294.432C655.202 304.557 653.296 316.546 648.599 328.19C643.903 339.834 636.958 349.79 629.043 356.225C622.001 361.95 614.872 364.341 608.624 363.149C607.584 362.95 606.569 362.653 605.583 362.256ZM620.068 282.637C612.618 288.694 606.053 298.136 601.579 309.225C592.487 331.766 594.887 354.058 606.929 358.915C618.972 363.781 636.166 349.386 645.259 326.843C649.732 315.755 651.555 304.399 650.392 294.869C649.277 285.72 645.554 279.429 639.909 277.153C639.148 276.846 638.363 276.616 637.554 276.461C632.364 275.471 626.254 277.607 620.068 282.637Z" fill="white"/>
<path d="M614.466 324.548C619.462 327.933 624.524 331.221 629.542 334.595C629.702 334.353 629.861 334.105 630.019 333.857C630.684 332.808 631.328 331.721 631.946 330.597C633.16 328.397 634.275 326.057 635.271 323.596C635.308 323.503 635.348 323.41 635.382 323.317C636.409 320.756 637.249 318.196 637.913 315.677C638.24 314.437 638.523 313.206 638.762 311.991C638.821 311.69 638.879 311.389 638.931 311.088C636.57 310.685 634.211 310.282 631.853 309.881C629.579 309.492 627.29 309.276 625.046 308.741C622.564 308.145 620.031 307.378 617.448 307.722C614.877 308.07 612.542 309.536 611.13 311.672C610.815 312.147 610.544 312.655 610.328 313.189C608.514 317.69 610.68 321.981 614.466 324.548Z" fill="white"/>
<path d="M688.203 389.389C687.953 389.389 687.702 389.312 687.486 389.152L681.482 384.693C681.468 384.683 681.454 384.673 681.442 384.662C680.455 383.862 679.814 382.619 679.682 381.252C679.549 379.865 679.95 378.499 680.783 377.505C683.545 374.207 687.489 376.746 688.785 377.58C689.74 378.195 690.866 378.88 692.17 379.673C694.069 380.829 696.223 382.14 698.441 383.599C698.997 383.964 699.151 384.711 698.786 385.267C698.42 385.823 697.673 385.977 697.117 385.612C694.934 384.177 692.8 382.878 690.917 381.732C689.654 380.963 688.461 380.237 687.481 379.606C684.449 377.654 683.357 378.186 682.629 379.053C682.208 379.555 682.008 380.272 682.08 381.022C682.15 381.741 682.463 382.379 682.942 382.776L688.922 387.217C689.457 387.614 689.568 388.369 689.171 388.903C688.935 389.221 688.572 389.389 688.203 389.389Z" fill="#B5E2FF"/>
<path d="M775.579 191.929C773.494 190.264 772.292 188.348 772.665 185.595C773.004 183.091 774.426 180.633 776.11 178.8C780.153 174.4 786.102 172.075 792.019 173.596C797.228 174.935 801.817 179.087 802.266 184.67C802.796 191.283 798.259 196.806 794.784 201.962C792.604 205.197 790.683 208.567 790.278 212.52C789.855 216.643 791.568 220.437 794.591 223.197C798.703 226.951 804.85 220.839 800.72 217.068C798.162 214.733 798.701 212.206 800.323 209.373C802.231 206.04 804.666 203.033 806.633 199.732C810.878 192.606 812.58 184.16 808.736 176.471C805.157 169.311 797.429 165.047 789.626 164.509C781.336 163.937 773.321 168.145 768.366 174.653C762.998 181.702 761.93 192.054 769.451 198.057C771.279 199.516 773.795 199.842 775.58 198.057C777.092 196.545 777.418 193.396 775.579 191.929Z" fill="#0767E4"/>
<path d="M792.106 260.631C782.468 260.631 772.924 258.247 764.198 253.553C750.305 246.078 740.154 233.64 735.616 218.53C731.078 203.42 732.695 187.447 740.17 173.554C747.645 159.66 760.083 149.51 775.192 144.971C806.384 135.603 839.382 153.357 848.751 184.548C858.119 215.74 840.365 248.738 809.174 258.107C803.554 259.795 797.813 260.631 792.106 260.631ZM792.155 145.72C786.85 145.72 781.463 146.482 776.128 148.085C761.85 152.374 750.097 161.966 743.033 175.094C735.97 188.223 734.441 203.317 738.73 217.595C743.018 231.872 752.61 243.626 765.738 250.689C778.867 257.753 793.961 259.281 808.239 254.993C837.713 246.139 854.49 214.958 845.637 185.483C838.387 161.345 816.155 145.72 792.155 145.72Z" fill="#090928"/>
<path d="M311.998 34.9563C311.889 34.4958 311.793 34.0353 311.693 33.5725C311.65 33.3774 311.533 32.2442 311.638 33.3413C311.744 34.4459 311.654 33.3137 311.648 33.1324C311.635 32.7 311.604 32.2704 311.603 31.8375C311.602 31.4807 311.454 30.2196 311.687 29.9522C311.388 30.2952 311.357 31.5254 311.645 30.3766C311.743 29.9884 311.809 29.5935 311.91 29.2058C312.085 28.5345 312.356 27.8985 312.545 27.2353C312.85 26.165 311.757 28.5346 312.401 27.6378C312.563 27.4118 312.67 27.1045 312.805 26.8595C313.121 26.2863 313.646 25.7221 313.885 25.1208C314.211 24.2973 313.461 25.6065 313.442 25.6464C313.623 25.2673 314.112 24.842 314.402 24.5233C315.284 23.5552 316.263 22.7193 317.244 21.8578C315.684 23.2278 317.314 21.8559 317.769 21.5566C318.463 21.1009 319.174 20.6751 319.901 20.2755C320.547 19.9211 321.212 19.6143 321.866 19.2784C322.249 19.0814 323.334 18.727 321.602 19.3683C321.901 19.2575 322.196 19.1347 322.495 19.0229C324 18.4611 325.541 17.9958 327.104 17.6272C327.778 17.4683 328.457 17.327 329.137 17.2014C329.605 17.1148 330.075 17.0473 330.544 16.9659C330.44 16.984 329.077 17.1067 330.063 17.0396C331.824 16.9202 333.557 16.7628 335.327 16.7904C336.139 16.8027 336.951 16.8394 337.762 16.8984C338.258 16.9345 340.626 17.2799 338.621 16.9393C340.208 17.2085 341.781 17.5054 343.336 17.9297C344.882 18.3517 346.392 18.875 347.88 19.4687C346.343 18.855 348.098 19.6071 348.673 19.8959C349.491 20.3074 350.293 20.747 351.08 21.2155C351.77 21.6266 352.447 22.0576 353.11 22.5114C353.627 22.8649 354.755 23.7564 353.63 22.8378C354.988 23.9457 356.285 25.1093 357.493 26.3805C358.065 26.9813 358.604 27.6088 359.147 28.2348C359.226 28.3257 359.966 29.2586 359.382 28.5051C358.746 27.6844 359.661 28.9085 359.798 29.104C360.788 30.5155 361.684 31.9912 362.473 33.5239C362.709 33.9821 363.615 35.9796 363.007 34.5149C363.333 35.3017 363.621 36.1057 363.886 36.9149C364.457 38.6556 364.774 40.41 365.185 42.1873C364.815 40.5851 365.213 42.4652 365.262 43.1607C365.312 43.8757 365.34 44.5917 365.344 45.309C365.349 46.1435 365.323 46.9783 365.264 47.8109C365.23 48.2866 365.178 48.7595 365.13 49.2342C365.206 48.474 365.309 48.2148 365.11 49.1153C364.745 50.7699 364.324 52.3545 363.787 53.9624C363.284 55.4676 364.23 53.2027 363.51 54.6294C363.067 55.509 362.618 56.3801 362.107 57.2226C361.651 57.9752 361.142 58.6821 360.646 59.4071C359.92 60.468 361.451 58.5732 360.566 59.4851C360.31 59.7492 360.085 60.0541 359.84 60.3295C358.629 61.6901 357.269 62.8285 355.954 64.0749C355.27 64.7219 356.176 63.9284 356.279 63.8499C355.908 64.1311 355.529 64.4041 355.148 64.671C354.577 65.0696 353.996 65.4531 353.406 65.8223C351.937 66.7423 350.41 67.5701 348.849 68.3255C348.118 68.679 347.377 69.0067 346.637 69.3388C348.138 68.6652 346.304 69.4558 345.738 69.6723C344.094 70.3007 342.429 70.8754 340.755 71.4187C337.593 72.4453 334.397 73.3582 331.212 74.3073C323.592 76.5779 315.962 79.0897 310.003 84.5948C303.301 90.7868 301.503 99.3922 302.988 108.107C303.73 112.464 309.323 115.296 313.352 113.992C318.052 112.471 320.032 108.295 319.237 103.628C318.953 101.964 319.239 103.474 319.251 103.774C319.233 103.329 319.189 102.89 319.183 102.443C319.178 102.066 319.398 99.7822 319.19 101.06C318.978 102.364 319.429 100.188 319.528 99.8588C319.528 99.8603 319.799 98.8199 319.902 98.7728C319.611 98.9069 319.032 100.392 319.896 98.9959C320.044 98.7556 320.622 97.4246 320.955 97.3399C320.781 97.3841 319.818 98.5801 320.71 97.7314C320.984 97.4702 321.23 97.1729 321.501 96.9075C321.729 96.6843 323.35 95.2234 322.408 96.0431C321.513 96.8223 322.488 95.9917 322.751 95.8219C323.176 95.5483 323.59 95.2648 324.023 95.0031C325.276 94.2458 326.589 93.6131 327.92 93.0084C325.957 93.8995 328.506 92.83 328.928 92.6821C329.809 92.3738 330.699 92.0912 331.589 91.8096C335.107 90.6959 338.66 89.6998 342.189 88.6232C349.401 86.423 356.784 83.8546 363.079 79.6154C370.635 74.5275 376.508 67.6581 379.781 59.1193C385.874 43.2254 380.037 24.3915 367.914 12.9774C355.851 1.62001 338.636 -2.397 322.624 1.37834C314.974 3.18228 307.026 7.17931 301.9 13.2743C295.588 20.7793 293.498 29.8813 295.748 39.4353C296.76 43.7287 301.895 46.6848 306.112 45.32C310.59 43.8714 313.081 39.5561 311.998 34.9563Z" fill="#0767E4"/>
<path d="M319.169 140.45C316.92 145.998 310.582 148.665 305.014 146.407C299.446 144.149 296.756 137.821 299.006 132.273C301.255 126.725 307.593 124.059 313.161 126.317C318.729 128.574 321.419 134.902 319.169 140.45Z" fill="#0767E4"/>
<path d="M417.653 410.767C413.074 407.458 415.113 401.346 418.153 397.406C422.078 392.32 428.712 389.345 435.117 390.531C440.87 391.596 446.097 395.645 447.19 401.61C448.48 408.657 443.796 415.037 440.297 420.679C438.001 424.382 435.867 428.201 435.481 432.625C435.085 437.175 437.013 441.44 440.506 444.338C442.469 445.967 445.267 446.261 447.19 444.338C448.867 442.661 449.164 439.292 447.19 437.654C444.341 435.289 444.468 432.807 446.042 429.581C447.929 425.717 450.614 422.262 452.655 418.477C456.992 410.434 458.673 400.744 453.704 392.543C449.16 385.044 440.415 380.645 431.721 380.849C422.548 381.063 414.128 386.137 409.186 393.791C406.778 397.519 405.225 402.194 405.583 406.664C406.001 411.885 408.704 415.91 412.882 418.929C414.951 420.425 418.148 419.286 419.348 417.233C420.743 414.849 419.728 412.267 417.653 410.767Z" fill="#0767E4"/>
<path d="M460.093 452.521C461.211 455.688 459.541 459.165 456.363 460.287C453.185 461.41 449.702 459.753 448.583 456.586C447.465 453.42 449.135 449.943 452.313 448.82C455.49 447.697 458.974 449.355 460.093 452.521Z" fill="#0767E4"/>
<path d="M314.743 468.536C314.724 470.357 314.56 474.246 313.871 477.518C313.775 477.957 313.674 478.386 313.563 478.795C313.428 478.381 313.322 477.952 313.249 477.518H304.806C296.85 467.34 288.108 457.404 282.161 445.886C281.727 445.047 281.308 444.194 280.903 443.337C276.494 433.94 274.094 407.849 292.32 415.155C301.495 418.832 307.167 428.219 310.512 438.744C312.685 445.568 313.875 452.869 314.405 459.398C314.671 462.695 314.772 465.794 314.743 468.536Z" fill="#090928"/>
<path d="M343.604 410.237C342.115 420.064 339.667 429.648 339.088 432.213C337.855 437.701 336.448 443.166 334.819 448.554C332.342 456.795 329.344 464.876 325.633 472.65C325.021 473.936 323.927 475.748 322.545 477.521H308.748C308.651 477.96 308.55 478.389 308.439 478.798C308.304 478.384 308.199 477.955 308.126 477.521C307.803 475.738 307.885 473.816 308.02 471.994C308.328 467.787 308.748 463.589 309.282 459.402C310.781 447.567 313.157 435.837 316.391 424.353C318.776 415.886 321.59 407.405 325.523 399.52C327.792 394.966 332.294 387.506 337.455 385.887C345.898 383.241 345.623 396.956 343.604 410.237Z" fill="#0767E4"/>
<path d="M307.901 477.519H286.644C280.818 473.678 275.049 469.746 269.691 465.284C263.869 460.435 255.735 450.985 264.399 444.639C266.65 442.995 269.662 442.152 272.587 442.359C276.028 442.605 279.232 444.007 282.162 445.886C283.411 446.687 284.606 447.573 285.748 448.493C295.299 456.19 302.32 466.589 307.901 477.519Z" fill="#0767E4"/>
<path d="M354.697 462.263C349.81 467.781 344.456 472.923 338.683 477.52H312.646C313.098 474.923 314.12 472.325 315.123 470.446C319.86 461.535 327.854 453.309 337.232 448.553C340.794 446.741 344.562 445.435 348.422 444.779C350.427 444.437 352.649 444.312 354.75 444.616C355.767 444.76 356.755 445.006 357.68 445.377C365.81 448.639 358.19 458.311 354.697 462.263Z" fill="#0767E4"/>
<path d="M335.213 533.777H291.639C291.062 533.777 290.565 533.367 290.456 532.8L279.864 477.747C279.795 477.394 279.889 477.029 280.118 476.752C280.347 476.475 280.687 476.314 281.047 476.314H311.561C311.668 476.314 311.773 476.328 311.872 476.355C311.971 476.328 312.075 476.314 312.182 476.314H345.805C346.165 476.314 346.505 476.475 346.734 476.752C346.962 477.029 347.056 477.394 346.988 477.747L336.396 532.8C336.287 533.367 335.791 533.777 335.213 533.777ZM292.634 531.368H334.218L344.346 478.724H312.183C312.075 478.724 311.971 478.711 311.872 478.684C311.773 478.711 311.668 478.724 311.561 478.724H282.506L292.634 531.368Z" fill="#090928"/>
<path d="M709.792 123.093C706.778 123.588 703.896 121.665 703.195 118.693L686.333 47.2715C684.88 41.118 688.946 35.0221 695.186 33.9992C701.425 32.9764 707.224 37.4549 707.813 43.7501L714.639 116.817C714.923 119.857 712.806 122.599 709.792 123.093Z" fill="#090928"/>
<path d="M721.316 142.03C722.058 146.558 718.989 150.83 714.461 151.572C709.933 152.314 705.66 149.246 704.918 144.718C704.176 140.19 707.245 135.917 711.772 135.175C716.301 134.433 720.573 137.502 721.316 142.03Z" fill="#090928"/>
<path d="M60.1333 280.858C58.4283 282.293 55.9042 282.163 54.3547 280.562L17.1232 242.083C13.9154 238.767 14.1889 233.428 17.7183 230.458C21.2477 227.488 26.5553 228.13 29.2741 231.857L60.8289 275.114C62.1418 276.914 61.8383 279.423 60.1333 280.858Z" fill="#090928"/>
<path d="M74.4281 288.428C76.5836 290.99 76.2549 294.814 73.6931 296.969C71.1318 299.125 67.3079 298.796 65.152 296.234C62.9965 293.673 63.3252 289.849 65.8869 287.693C68.4482 285.538 72.2721 285.867 74.4281 288.428Z" fill="#090928"/>
<path d="M654.401 545.092C646.934 545.092 639.511 543.521 633.992 540.785C633.81 540.695 633.658 540.567 633.541 540.417C633.506 540.4 633.47 540.381 633.436 540.36C626.591 536.283 618.792 533.639 610.881 532.713C610.462 532.664 610.093 532.415 609.89 532.046C609.688 531.676 609.677 531.231 609.861 530.851C615.496 519.255 622.036 510.696 629.854 504.686C639.518 497.258 651.035 494.151 661.451 496.161C673.117 498.411 682.777 507.847 684.42 518.598C685.734 527.202 683.014 534.246 676.553 538.967C670.726 543.225 662.538 545.092 654.401 545.092ZM635.131 538.444C635.137 538.447 635.142 538.45 635.148 538.453C645.773 543.718 664.759 544.362 675.017 536.865C680.724 532.694 683.021 526.681 681.846 518.991C680.364 509.292 671.58 500.766 660.958 498.717C651.415 496.876 640.382 499.879 631.44 506.751C624.315 512.228 618.272 519.965 613.006 530.37C620.649 531.51 628.137 534.174 634.768 538.124C634.912 538.209 635.034 538.319 635.131 538.444Z" fill="#090928"/>
<path d="M599.289 521.198C599.197 521.198 599.105 521.188 599.014 521.168C598.521 521.061 598.133 520.68 598.021 520.188C597.689 518.751 596.701 517.16 595.829 515.757C595.661 515.486 595.496 515.22 595.338 514.961C587.513 502.072 574.237 495.098 561.398 488.354C557.889 486.51 554.261 484.604 550.794 482.605C535.792 473.952 525.361 456.801 534.45 440.76C538.795 433.091 545.366 428.482 553.452 427.432C567.142 425.652 582.327 434.121 591.299 443.302C596.29 448.409 600.252 454.592 603.074 461.679C609.012 476.587 609.762 493.862 605.131 509.075C605.02 509.439 604.908 509.814 604.793 510.197C603.776 513.595 602.51 517.824 600.323 520.686C600.074 521.013 599.689 521.198 599.289 521.198ZM557.249 429.795C556.086 429.795 554.931 429.865 553.787 430.014C546.441 430.969 540.696 435.016 536.715 442.043C528.462 456.608 538.205 472.339 552.094 480.35C555.517 482.324 559.122 484.218 562.609 486.049C575.762 492.958 589.363 500.103 597.564 513.61C597.717 513.861 597.877 514.12 598.041 514.383C598.549 515.201 599.093 516.077 599.558 516.989C600.736 514.675 601.583 511.844 602.299 509.451C602.415 509.064 602.528 508.685 602.641 508.317C607.103 493.659 606.379 477.012 600.656 462.642C597.961 455.877 594.187 449.982 589.437 445.122C581.679 437.183 569.102 429.795 557.249 429.795Z" fill="#090928"/>
<path d="M555.714 571.219C554.239 571.219 552.775 570.928 551.354 570.345C546.116 568.197 542.616 562.695 541.087 558.262C537.555 548.023 543.077 535.929 548.879 528.684C552.901 523.661 557.695 520.094 562.744 518.368C565.552 517.408 568.412 517.026 571.248 517.232C575.272 517.524 580.084 518.538 580.153 521.714C580.189 523.384 578.764 524.401 578.079 524.89C574.636 527.346 571.664 529.667 570.176 533.197C568.768 536.538 568.647 540.371 568.727 544.016C568.742 544.734 568.172 545.33 567.454 545.345C567.444 545.346 567.434 545.346 567.425 545.346C566.719 545.346 566.139 544.781 566.124 544.072C566.038 540.139 566.179 535.977 567.777 532.186C569.528 528.033 572.935 525.362 576.568 522.77C577.429 522.156 577.553 521.88 577.551 521.77C577.54 521.257 575.624 520.16 571.06 519.829C568.579 519.648 566.062 519.985 563.586 520.831C559.007 522.397 554.623 525.675 550.911 530.31C545.523 537.04 540.362 548.175 543.548 557.412C544.891 561.308 547.907 566.118 552.342 567.936C554.851 568.966 557.444 568.833 560.047 567.542C560.691 567.221 561.472 567.486 561.792 568.13C562.111 568.773 561.848 569.555 561.204 569.874C559.399 570.77 557.548 571.219 555.714 571.219Z" fill="#090928"/>
<path d="M595.875 553.507C595.213 553.507 594.647 553.005 594.581 552.333C592.996 536.269 589.538 525.476 577.216 521.307C576.535 521.076 576.17 520.338 576.401 519.656C576.631 518.975 577.37 518.61 578.051 518.84C593.173 523.957 595.85 538.679 597.172 552.077C597.242 552.792 596.72 553.429 596.004 553.5C595.961 553.505 595.918 553.507 595.875 553.507Z" fill="#090928"/>
<path d="M601.099 554.15C600.97 554.15 600.84 554.131 600.711 554.09C600.025 553.877 599.642 553.147 599.856 552.46C601.163 548.259 602.68 544.332 604.364 540.788C605.667 538.044 608.007 533.8 610.055 530.468C610.431 529.855 611.232 529.664 611.846 530.041C612.458 530.417 612.649 531.218 612.273 531.831C610.269 535.093 607.983 539.236 606.715 541.905C605.084 545.339 603.613 549.151 602.341 553.235C602.168 553.792 601.653 554.15 601.099 554.15Z" fill="#090928"/>
<path d="M598.628 553.386C598.58 553.386 598.531 553.383 598.481 553.378C597.767 553.298 597.253 552.654 597.333 551.939C598.623 540.453 598.492 529.398 598.194 520.1C598.171 519.381 598.735 518.78 599.453 518.757C600.171 518.722 600.772 519.298 600.795 520.016C601.097 529.407 601.228 540.579 599.92 552.23C599.846 552.895 599.282 553.386 598.628 553.386Z" fill="#090928"/>
<path d="M613.628 603.595C613.626 603.595 613.625 603.595 613.624 603.595L581.857 603.503C581.255 603.501 580.732 603.086 580.594 602.5L572.196 566.805C570.284 566.684 568.504 565.898 567.14 564.561C565.648 563.1 564.83 561.157 564.835 559.092C564.842 557.028 565.671 555.092 567.17 553.641C568.655 552.204 570.622 551.414 572.711 551.414C572.719 551.414 572.727 551.414 572.735 551.414L623.053 551.561C625.144 551.567 627.115 552.368 628.602 553.817C630.097 555.281 630.914 557.222 630.909 559.284C630.903 561.348 630.073 563.285 628.572 564.738C627.198 566.069 625.411 566.846 623.498 566.954L614.893 602.6C614.752 603.184 614.229 603.595 613.628 603.595ZM582.893 600.903L612.604 600.989L621.205 565.358C621.347 564.774 621.869 564.362 622.471 564.362C622.472 564.362 622.473 564.362 622.474 564.362L623.016 564.364C623.022 564.364 623.027 564.364 623.033 564.364C624.441 564.364 625.764 563.833 626.762 562.867C627.753 561.907 628.302 560.632 628.306 559.276C628.31 557.922 627.769 556.645 626.783 555.679C625.785 554.707 624.457 554.167 623.046 554.163L572.729 554.017C572.723 554.017 572.718 554.017 572.712 554.017C571.302 554.017 569.978 554.547 568.981 555.511C567.991 556.469 567.443 557.743 567.44 559.099C567.435 560.456 567.976 561.735 568.962 562.701C569.956 563.674 571.283 564.213 572.699 564.217L573.234 564.218C573.838 564.22 574.36 564.635 574.498 565.221L582.893 600.903Z" fill="#090928"/>
<path d="M173.331 404.66C173.204 404.445 173.141 404.189 173.169 403.922L173.934 393.45C173.936 393.433 173.938 393.416 173.941 393.399C174.124 392.142 174.865 390.956 175.973 390.144C177.098 389.321 178.477 388.967 179.757 389.176C184.003 389.866 183.835 394.553 183.781 396.093C183.741 397.229 183.727 398.547 183.711 400.072C183.687 402.296 183.594 406.709 183.473 409.361C183.443 410.026 182.879 410.54 182.214 410.51C181.55 410.479 181.036 409.916 181.066 409.252C181.185 406.642 181.278 402.251 181.302 400.047C181.317 398.569 181.331 397.172 181.373 396.007C181.502 392.403 180.487 391.736 179.37 391.554C178.723 391.449 178.004 391.643 177.397 392.088C176.814 392.515 176.426 393.111 176.329 393.725L175.566 404.168C175.498 404.83 174.906 405.312 174.245 405.244C173.85 405.203 173.52 404.977 173.331 404.66Z" fill="#B5E2FF"/>
</svg>
