<svg width="1280" height="554" viewBox="0 0 1280 554" fill="none" xmlns="http://www.w3.org/2000/svg">
<path d="M851.341 43.7395H745.254C745.254 29.8702 756.194 18.6317 769.693 18.6317C771.082 18.6317 772.43 18.7463 773.747 18.9763C779.22 7.72184 790.543 0 803.627 0C811.478 0 818.699 2.78678 824.396 7.45921C829.846 11.9024 833.914 18.0825 835.814 25.1811C844.598 26.5414 851.341 34.3293 851.341 43.7395Z" fill="#B5E2FF"/>
<path d="M807.199 132.867L879.289 168.399C882.502 169.983 886.247 167.685 886.412 164.027L890.645 70.4192C890.84 66.1153 886.083 63.5092 882.713 66.0732L806.391 124.149C803.378 126.441 803.82 131.201 807.199 132.867Z" fill="#B5E2FF"/>
<path d="M860.11 111.07C860.11 111.07 774.397 238.467 552.844 285.179C490.097 298.408 434.236 334.792 395.523 387.22L383.747 403.168C383.747 403.168 770.961 371.602 872.527 116.584L860.11 111.07Z" fill="#B5E2FF"/>
<path d="M469.224 178.509C445.403 178.511 422.751 164.042 413.029 140.081C400.133 108.292 414.813 71.6512 445.755 58.4015C460.744 51.9835 477.268 51.9457 492.284 58.2963C507.3 64.6469 519.011 76.624 525.258 92.0227C538.154 123.81 523.474 160.451 492.533 173.701C484.914 176.964 477.004 178.509 469.224 178.509ZM469.142 57.2552C461.684 57.2552 454.228 58.7737 447.138 61.8101C418.025 74.2762 404.213 108.751 416.347 138.661C428.48 168.57 462.037 182.76 491.15 170.294C520.262 157.828 534.075 123.353 521.941 93.4441C516.063 78.9552 505.045 67.6855 490.916 61.7107C483.892 58.7404 476.516 57.2552 469.142 57.2552Z" fill="#090928"/>
<path d="M504.905 125.063C504.902 125.06 504.896 125.057 504.892 125.05L499.891 120.33C500.06 118.906 500.148 117.497 500.148 116.124C500.148 114.751 500.06 113.341 499.891 111.918L504.905 107.184C506.561 105.584 506.938 103.045 505.816 100.987L500.298 91.1853C499.192 89.1641 496.789 88.202 494.588 88.9069L488.097 91.0115C485.896 89.251 483.522 87.8345 481.025 86.7922L479.526 79.9471C479.035 77.6821 477.041 76.0352 474.785 76.0352H463.729C461.472 76.0352 459.479 77.6821 458.988 79.9438L457.489 86.7922C454.992 87.8345 452.618 89.251 450.416 91.0115L443.919 88.9069C441.731 88.2087 439.322 89.1608 438.229 91.1652L432.688 101.007C431.576 103.045 431.953 105.584 433.625 107.197L438.626 111.918C438.453 113.341 438.366 114.751 438.366 116.124C438.366 117.497 438.453 118.906 438.622 120.33L433.608 125.063C431.953 126.664 431.576 129.202 432.698 131.257L438.216 141.059C439.322 143.083 441.721 144.042 443.926 143.34L450.416 141.236C452.618 142.996 454.992 144.413 457.489 145.455L458.988 152.297C459.479 154.565 461.472 156.212 463.729 156.212H474.785C477.041 156.212 479.035 154.565 479.526 152.303L481.025 145.455C483.522 144.413 485.896 143 488.097 141.236L494.594 143.34C496.789 144.045 499.192 143.083 500.288 141.079L505.829 131.237C506.938 129.202 506.561 126.664 504.905 125.063ZM469.257 132.827C460.292 132.827 452.998 125.334 452.998 116.124C452.998 106.913 460.292 99.4201 469.257 99.4201C478.222 99.4201 485.515 106.913 485.515 116.124C485.515 125.334 478.222 132.827 469.257 132.827Z" fill="#090928"/>
<path d="M532.27 462.607H393.494V504.122H532.27V462.607Z" fill="#B5E2FF"/>
<path d="M532.27 504.123H393.494V646.703H532.27V504.123Z" fill="#0674FF"/>
<path d="M738.269 397.053H599.492V453.354H738.269V397.053Z" fill="#B5E2FF"/>
<path d="M738.269 453.354H599.492V646.703H738.269V453.354Z" fill="#0674FF"/>
<path d="M944.268 325.412H805.492V397.871H944.268V325.412Z" fill="#B5E2FF"/>
<path d="M944.268 397.869H805.492V646.701H944.268V397.869Z" fill="#0674FF"/>
<path d="M500.027 648.548H361.251C360.258 648.548 359.454 647.721 359.454 646.702V504.121C359.454 503.102 360.258 502.275 361.251 502.275H500.027C501.019 502.275 501.824 503.102 501.824 504.121V646.702C501.824 647.721 501.019 648.548 500.027 648.548ZM363.048 644.856H498.231V505.968H363.048V644.856Z" fill="#090928"/>
<path d="M706.026 648.549H567.249C566.257 648.549 565.453 647.723 565.453 646.704V453.354C565.453 452.334 566.257 451.508 567.249 451.508H706.026C707.019 451.508 707.822 452.334 707.822 453.354V646.704C707.822 647.723 707.018 648.549 706.026 648.549ZM569.046 644.858H704.228V455.199H569.046V644.858Z" fill="#090928"/>
<path d="M912.026 648.55H773.249C772.256 648.55 771.453 647.724 771.453 646.704V397.871C771.453 396.852 772.257 396.025 773.249 396.025H912.026C913.018 396.025 913.822 396.852 913.822 397.871V646.704C913.822 647.724 913.018 648.55 912.026 648.55ZM775.046 644.858H910.228V399.717H775.046V644.858Z" fill="#090928"/>
<path d="M448.954 348.684C448.95 348.677 457.564 288.01 457.564 288.01L487.822 292.542C487.822 292.542 489.297 316.909 489.3 316.958C489.446 319.467 489.09 323.214 488.064 325.507C486.868 328.177 484.118 328.114 481.696 328.541C479.108 328.997 477.281 329.956 475.401 331.875C471.68 335.673 469.638 340.635 467.746 345.563C466.106 349.836 463.904 352.105 459.212 352.273C455.935 352.391 450.942 351.82 448.954 348.684Z" fill="#0674FF"/>
<path d="M692.91 422.919C692.904 422.925 633.228 422.919 633.228 422.919V391.505C633.228 391.505 656.485 386.489 656.531 386.48C658.926 385.97 662.588 385.791 664.944 386.503C667.689 387.334 668.024 390.138 668.785 392.54C669.597 395.105 670.785 396.823 672.904 398.458C677.099 401.694 682.173 403.054 687.193 404.266C691.545 405.317 694.048 407.228 694.887 411.975C695.474 415.288 695.644 420.445 692.91 422.919Z" fill="#0674FF"/>
<path d="M631.884 391.397L599.863 269.018C597.25 259.031 603.011 248.76 612.732 246.075C622.454 243.389 632.451 249.309 635.064 259.296L667.086 381.674C669.698 391.661 634.072 399.755 631.884 391.397Z" fill="#090928"/>
<path d="M509.039 329.411H485.905C475.84 329.411 475.84 291.963 485.905 291.963H509.039C533.8 291.963 557.138 279.577 571.468 258.832L578.775 248.255C584.601 239.82 595.978 237.837 604.186 243.822C612.394 249.807 622.844 259.915 617.018 268.348L613.626 272.765C611.278 275.823 607.515 277.356 603.765 276.783L601.194 280.505C580.04 311.129 545.59 329.411 509.039 329.411Z" fill="#090928"/>
<path d="M649.328 261.48C644.775 266.949 636.706 272.298 626.973 271.998C609.631 271.465 586.468 260.655 564.667 255.156C565.036 229.689 568.795 217.024 579.656 194.164C585.588 181.677 598.321 166.665 611.808 167.673V175.163C627.805 176.358 640.668 189.162 642.335 205.552L649.328 261.48Z" fill="#0674FF"/>
<path d="M598.325 159.486H624.809L629.314 179.397H593.82L598.325 159.486Z" fill="#0674FF"/>
<path d="M627.708 136.137C629.711 127.335 624.389 118.532 615.821 116.475C607.253 114.417 598.684 119.885 596.682 128.687C594.679 137.489 600.002 146.293 608.569 148.35C617.137 150.407 625.706 144.939 627.708 136.137Z" fill="white"/>
<path d="M612.169 150.63C602.394 150.63 594.442 142.459 594.442 132.417C594.442 122.375 602.394 114.205 612.169 114.205C621.943 114.205 629.896 122.375 629.896 132.417C629.896 142.459 621.943 150.63 612.169 150.63ZM612.169 117.897C604.376 117.897 598.036 124.411 598.036 132.417C598.036 140.424 604.376 146.937 612.169 146.937C619.962 146.937 626.303 140.424 626.303 132.417C626.302 124.411 619.962 117.897 612.169 117.897Z" fill="#090928"/>
<path d="M630.354 127.79C625.507 128.174 619.726 126.842 615.512 124.849C612.634 123.487 610.563 121.129 607.654 122.422C604.904 123.644 603.088 126.712 603.08 129.76C603.078 130.534 602.041 132.188 602.061 133.191C602.078 134.082 603.32 134.208 603.079 134.923C600.911 141.363 593.752 138.835 590.326 135.111C586.118 130.538 584.719 121.425 591.323 118.232C592.139 117.838 593.054 117.665 593.951 117.626C595.845 117.544 597.879 118.51 599.558 117.6C602.287 116.117 601.068 112.253 601.397 109.746C602.94 97.9871 616.847 98.2737 624.582 102.257C629.142 104.605 632.84 108.372 635.127 113.215C636.914 116.996 637.379 124.575 633.093 127.034C632.268 127.508 631.289 127.716 630.354 127.79Z" fill="#090928"/>
<path d="M496.035 274.89C494.001 274.89 492.393 273.993 491.227 272.201C490.577 271.201 490.222 269.993 490.19 268.739L488.196 270.059C485.199 272.043 481.189 271.153 479.258 268.074C477.56 265.367 478.025 261.856 480.198 259.699C479.089 259.192 478.106 258.359 477.401 257.235C476.428 255.684 476.174 253.935 476.665 252.174C478.26 246.458 487.496 241.323 496.322 237.053C497.22 236.619 498.291 237.015 498.713 237.937C499.136 238.859 498.751 239.959 497.854 240.394C493.804 242.353 481.48 248.314 480.12 253.191C479.911 253.939 480.004 254.57 480.422 255.234C481.28 256.602 483.061 256.998 484.393 256.117L491.328 251.526C491.826 251.195 492.452 251.14 492.998 251.376C493.544 251.613 493.943 252.11 494.062 252.707C494.095 252.872 494.129 253.037 494.169 253.201C494.356 253.968 494.047 254.772 493.4 255.2L483.139 261.994C481.807 262.875 481.421 264.706 482.279 266.074C483.138 267.442 484.92 267.838 486.251 266.956L496.573 260.122C497.212 259.7 498.04 259.736 498.643 260.212L498.699 260.257C498.76 260.305 498.82 260.353 498.883 260.4C499.362 260.759 499.639 261.336 499.623 261.946C499.606 262.554 499.298 263.115 498.8 263.445L495.029 265.941C494.45 266.325 494.021 267.019 493.854 267.842C493.683 268.691 493.815 269.533 494.217 270.151C494.912 271.22 496.074 271.944 499.836 270.013C501.121 269.353 502.676 268.606 504.321 267.814C506.784 266.63 509.574 265.287 512.442 263.78C513.323 263.316 514.408 263.673 514.861 264.582C515.313 265.49 514.963 266.602 514.079 267.066C511.156 268.604 508.335 269.961 505.845 271.158C504.151 271.974 502.687 272.678 501.442 273.316C499.395 274.365 497.59 274.89 496.035 274.89Z" fill="#090928"/>
<path d="M627.628 213.113C620.2 213.113 612.589 212.485 604.798 211.228C597.065 209.979 591.78 202.526 592.996 194.58C594.21 186.634 601.471 181.208 609.199 182.454C639.287 187.311 664.786 180.761 687.158 162.43C693.278 157.415 702.197 158.447 707.079 164.735C711.96 171.023 710.956 180.186 704.835 185.201C682.175 203.768 656.282 213.113 627.628 213.113Z" fill="#0674FF"/>
<path d="M517.432 261.237C515.109 261.237 512.753 260.649 510.577 259.41C503.728 255.512 501.252 246.65 505.046 239.614C515.138 220.897 528.172 206.847 543.788 197.858C559.459 188.837 577.8 184.859 598.301 186.038C606.117 186.487 612.099 193.362 611.662 201.392C611.24 209.145 604.988 215.142 597.522 215.142C597.255 215.142 596.987 215.134 596.717 215.119C566.666 213.392 544.785 226.02 529.846 253.728C527.257 258.527 522.42 261.237 517.432 261.237Z" fill="#0674FF"/>
<path d="M543.788 199.703C543.159 199.703 542.548 199.363 542.219 198.759C541.734 197.869 542.042 196.745 542.908 196.246C558.883 187.05 577.548 182.994 598.4 184.194C599.391 184.251 600.148 185.122 600.093 186.14C600.038 187.158 599.194 187.944 598.199 187.88C578.051 186.72 560.034 190.62 544.666 199.467C544.387 199.627 544.085 199.703 543.788 199.703Z" fill="#090928"/>
<path d="M559.888 223.984C559.233 223.984 558.601 223.614 558.284 222.971C557.836 222.062 558.19 220.952 559.075 220.49C569.846 214.883 582.543 212.454 596.816 213.275C597.806 213.331 598.565 214.203 598.51 215.221C598.454 216.238 597.605 217.029 596.616 216.96C582.787 216.17 571.043 218.4 560.7 223.784C560.439 223.919 560.161 223.984 559.888 223.984Z" fill="#090928"/>
<path d="M615.944 123.645C612.676 122.073 608.508 120.036 604.837 121.311C601.249 122.557 598.641 126.993 599.198 130.836C599.481 132.786 600.598 133.891 602.049 134.463L615.944 123.645Z" fill="white"/>
<path d="M602.048 136.307C601.835 136.307 601.617 136.267 601.405 136.185C599.151 135.297 597.773 133.54 597.42 131.107C596.734 126.374 599.867 121.087 604.262 119.561C608.578 118.059 613.221 120.293 616.611 121.925L616.706 121.971C617.605 122.403 617.992 123.502 617.571 124.425C617.15 125.348 616.079 125.746 615.182 125.314L615.087 125.268C612.092 123.827 608.364 122.034 605.413 123.058C602.659 124.015 600.544 127.592 600.975 130.563C601.135 131.662 601.664 132.332 602.693 132.737C603.619 133.102 604.082 134.17 603.727 135.122C603.453 135.856 602.771 136.307 602.048 136.307Z" fill="#090928"/>
<path d="M723.222 175.894C722.7 175.894 722.182 175.661 721.826 175.212C721.201 174.421 721.317 173.258 722.088 172.615C725.562 169.715 736.131 160.889 736.313 155.818C736.34 155.04 736.103 154.452 735.542 153.909C734.389 152.794 732.567 152.848 731.48 154.032L725.821 160.199C725.415 160.641 724.826 160.85 724.237 160.757C723.652 160.663 723.149 160.279 722.893 159.73C722.823 159.578 722.751 159.426 722.673 159.275C722.312 158.577 722.424 157.719 722.953 157.143L731.326 148.017C732.412 146.833 732.359 144.961 731.206 143.845C730.053 142.728 728.231 142.783 727.144 143.968L718.721 153.148C718.201 153.715 717.388 153.885 716.694 153.573L716.621 153.54C716.551 153.508 716.48 153.476 716.41 153.446C715.491 153.061 715.05 151.983 715.426 151.039C715.663 150.444 716.167 150.045 716.737 149.927L724.529 141.435C726.975 138.769 731.076 138.646 733.67 141.157C735.95 143.365 736.32 146.885 734.717 149.516C735.943 149.74 737.08 150.325 738.006 151.222C739.312 152.487 739.968 154.123 739.903 155.953C739.691 161.896 731.924 169.159 724.354 175.479C724.021 175.759 723.621 175.894 723.222 175.894Z" fill="#090928"/>
<path d="M743.997 396.758C741.683 396.758 739.355 396.595 737.024 396.266C709.47 392.376 690.135 366.181 693.923 337.874C695.757 324.161 702.68 312.003 713.415 303.639C724.15 295.275 737.412 291.706 750.759 293.592C778.313 297.483 797.648 323.678 793.861 351.985C792.027 365.698 785.104 377.856 774.369 386.22C765.509 393.122 754.927 396.758 743.997 396.758ZM743.794 296.793C733.642 296.793 723.814 300.17 715.586 306.581C705.615 314.348 699.186 325.64 697.482 338.376C693.965 364.666 711.922 388.995 737.512 392.609C749.906 394.356 762.227 391.045 772.197 383.277C782.167 375.509 788.597 364.217 790.301 351.482C793.818 325.191 775.859 300.863 750.27 297.25C748.106 296.944 745.942 296.793 743.794 296.793Z" fill="#090928"/>
<path d="M770.91 351.992C770.908 351.99 770.903 351.987 770.9 351.982L767.182 348.472C767.307 347.414 767.373 346.366 767.373 345.345C767.373 344.324 767.307 343.275 767.182 342.217L770.91 338.697C772.141 337.507 772.421 335.619 771.587 334.089L767.484 326.801C766.662 325.298 764.875 324.582 763.238 325.106L758.412 326.671C756.775 325.362 755.01 324.309 753.153 323.534L752.038 318.444C751.673 316.76 750.191 315.535 748.513 315.535H740.292C738.614 315.535 737.131 316.76 736.766 318.442L735.652 323.534C733.795 324.309 732.029 325.362 730.393 326.671L725.561 325.106C723.934 324.587 722.143 325.295 721.33 326.786L717.21 334.104C716.383 335.619 716.663 337.507 717.906 338.707L721.625 342.217C721.497 343.275 721.432 344.324 721.432 345.345C721.432 346.366 721.497 347.414 721.623 348.472L717.894 351.992C716.663 353.182 716.383 355.07 717.217 356.598L721.32 363.886C722.143 365.391 723.927 366.104 725.566 365.583L730.393 364.018C732.029 365.327 733.795 366.38 735.652 367.155L736.766 372.243C737.131 373.929 738.614 375.154 740.292 375.154H748.513C750.191 375.154 751.673 373.929 752.038 372.247L753.153 367.155C755.01 366.38 756.775 365.329 758.412 364.018L763.243 365.583C764.875 366.107 766.662 365.391 767.477 363.901L771.597 356.583C772.421 355.07 772.141 353.182 770.91 351.992ZM744.402 357.765C737.736 357.765 732.312 352.193 732.312 345.345C732.312 338.496 737.736 332.924 744.402 332.924C751.068 332.924 756.492 338.496 756.492 345.345C756.492 352.193 751.068 357.765 744.402 357.765Z" fill="#090928"/>
<path d="M701.285 153.964C700.782 153.964 700.283 153.748 699.928 153.329C699.277 152.559 699.357 151.394 700.106 150.725C702.581 148.514 705 146.504 707.133 144.73C708.592 143.517 709.852 142.47 710.913 141.541C714.931 138.024 718.354 137.542 721.088 140.105C722.329 141.268 723.08 142.996 723.149 144.844C723.215 146.667 722.606 148.42 721.476 149.652L718.399 153.005L715.785 150.472L718.859 147.121C719.334 146.602 719.589 145.824 719.558 144.983C719.527 144.117 719.202 143.332 718.667 142.831C717.742 141.965 716.446 141.549 713.244 144.351C712.149 145.31 710.811 146.422 709.395 147.599C707.284 149.354 704.892 151.343 702.464 153.511C702.123 153.814 701.703 153.964 701.285 153.964Z" fill="#090928"/>
<path d="M722.021 144.504L688.866 99.9567C673.753 103.541 657.309 98.0383 647.308 84.532C639.18 73.5551 637.154 59.7789 640.65 47.4844C641.499 44.4977 645.295 44.0991 647.151 46.606L661.573 66.083C662.468 67.291 663.944 67.9207 665.426 67.7266L681.819 65.5806C683.272 65.3903 684.509 64.4369 685.063 63.0794L691.532 47.2215C692.075 45.8902 691.881 44.3662 691.021 43.2045L676.349 23.3902C674.537 20.9432 675.91 17.4965 678.94 17.441C691.458 17.2116 703.909 22.8951 712.07 33.917C722.071 47.4233 722.845 65.1725 715.449 79.1807L811.304 208.632C819.064 208.863 826.66 212.559 831.726 219.402C840.623 231.417 838.355 248.567 826.659 257.708C814.964 266.848 798.271 264.517 789.374 252.502C784.307 245.66 782.867 237.153 784.721 229.408L735.536 162.858" stroke="#090928" stroke-width="4.11164" stroke-miterlimit="10"/>
<path d="M809.205 246.122C803.737 245.358 799.907 240.185 800.65 234.567C801.393 228.95 806.428 225.014 811.896 225.778C817.364 226.541 821.195 231.714 820.452 237.332C819.708 242.95 814.673 246.885 809.205 246.122Z" stroke="#090928" stroke-width="4.11164" stroke-miterlimit="10"/>
<path d="M704.879 87.7615L708.906 93.2005" stroke="#090928" stroke-width="4.11164" stroke-miterlimit="10"/>
<path d="M1297.72 416.839H1191.64C1191.64 402.97 1202.58 391.731 1216.08 391.731C1217.47 391.731 1218.81 391.846 1220.13 392.076C1225.6 380.821 1236.93 373.1 1250.01 373.1C1257.86 373.1 1265.08 375.886 1270.78 380.559C1276.23 385.002 1280.3 391.182 1282.2 398.281C1290.98 399.641 1297.72 407.429 1297.72 416.839Z" fill="#B5E2FF"/>
<path d="M212.416 267.226H-18C-12.1632 254.571 0.390301 245.811 14.9275 245.811C15.3986 245.811 15.8569 245.823 16.316 245.85C24.0609 234.518 36.863 227.121 51.3621 227.121C53.2957 227.121 55.2039 227.248 57.0626 227.515C66.208 204.954 87.8709 189.104 113.139 189.104C138.271 189.104 159.822 204.776 169.054 227.134C169.302 227.121 169.55 227.121 169.798 227.121C192.166 227.121 210.52 244.754 212.416 267.226Z" fill="#B5E2FF"/>
</svg>
