<svg width="52" height="52" viewBox="0 0 52 52" fill="none" xmlns="http://www.w3.org/2000/svg">
<rect width="52" height="52" rx="10.4" fill="#0060FF"/>
<path d="M37.9829 6.03201H14.017C13.4554 6.03201 13 6.41808 13 6.89428V32.0618C13 32.2905 13.1072 32.5098 13.2979 32.6715L16.2937 35.2114C16.6908 35.5482 17.3348 35.5482 17.732 35.2114L20.0086 33.2813L22.2851 35.2114C22.4759 35.3731 22.7345 35.464 23.0043 35.464C23.274 35.464 23.5328 35.3732 23.7235 35.2114L26 33.2813L28.2766 35.2114C28.4673 35.3731 28.726 35.464 28.9957 35.464C29.2655 35.464 29.5241 35.3731 29.7149 35.2114L31.9914 33.2813L34.268 35.2114C34.4666 35.3798 34.7268 35.464 34.9871 35.464C35.2474 35.464 35.5077 35.3799 35.7063 35.2114L38.7021 32.6715C38.8928 32.5098 39 32.2905 39 32.0618V6.89428C38.9999 6.41808 38.5446 6.03201 37.9829 6.03201ZM34.9871 33.3823L32.7105 31.4521C32.5198 31.2904 32.261 31.1995 31.9913 31.1995C31.7215 31.1995 31.4629 31.2904 31.2721 31.4521L28.9956 33.3823L26.719 31.4521C26.3219 31.1154 25.6779 31.1154 25.2807 31.4521L23.0041 33.3823L20.7276 31.4521C20.5369 31.2904 20.2782 31.1995 20.0084 31.1995C19.7387 31.1995 19.48 31.2904 19.2893 31.4521L17.0127 33.3823L15.0339 31.7047V7.75654H36.9658V31.7047H36.9659L34.9871 33.3823Z" fill="white"/>
<path d="M29.1848 21.253L29.9323 21.838C29.2606 22.7697 28.3398 23.5497 27.1698 24.178C25.9998 24.7847 24.8623 25.088 23.7573 25.088C22.6523 25.088 21.7639 24.763 21.0923 24.113C20.4206 23.463 20.0848 22.6072 20.0848 21.5455C20.0848 19.5522 21.1356 17.5913 23.2373 15.663C25.3606 13.7347 27.5056 12.7705 29.6723 12.7705C31.1023 12.7705 31.8173 13.3338 31.8173 14.4605C31.8173 15.6305 31.0589 16.8113 29.5423 18.003C28.0473 19.1947 25.9348 20.278 23.2048 21.253C23.3998 21.7513 23.7031 22.1413 24.1148 22.423C24.5264 22.7047 24.9489 22.8455 25.3823 22.8455C26.3139 22.8455 27.5814 22.3147 29.1848 21.253ZM23.0423 20.278C24.7973 19.6713 26.3031 18.913 27.5598 18.003C28.8164 17.093 29.4448 16.2588 29.4448 15.5005C29.4448 15.2188 29.3364 14.9697 29.1198 14.753C28.9031 14.5363 28.6539 14.428 28.3723 14.428C27.3539 14.428 26.2489 15.0672 25.0573 16.3455C23.8873 17.6022 23.2156 18.913 23.0423 20.278Z" fill="#00FF29"/>
<path d="M18.1029 45.7413C17.7332 45.7413 17.5098 45.5097 17.5098 45.1238V41.8332C17.5098 41.4472 17.7332 41.2116 18.1029 41.2116C18.4685 41.2116 18.696 41.4472 18.696 41.8332V45.1238C18.696 45.5097 18.4685 45.7413 18.1029 45.7413Z" fill="white"/>
<path d="M20.0813 45.7413C19.736 45.7413 19.4882 45.5301 19.4882 45.1238V41.8088C19.4882 41.4391 19.7035 41.2116 20.061 41.2116C20.4185 41.2116 20.6541 41.4391 20.6541 41.8129V42.0566H20.6785C20.9101 41.5163 21.3488 41.2197 22.0191 41.2197C22.986 41.2197 23.5304 41.8291 23.5304 42.8488V45.1238C23.5304 45.5301 23.2826 45.7413 22.9373 45.7413C22.5879 45.7413 22.3441 45.5301 22.3441 45.1238V43.0966C22.3441 42.5279 22.076 42.2029 21.5438 42.2029C21.0116 42.2029 20.6745 42.5929 20.6745 43.1576V45.1238C20.6745 45.5301 20.4307 45.7413 20.0813 45.7413Z" fill="white"/>
<path d="M24.8913 45.7413C24.5501 45.7413 24.3104 45.5382 24.3104 45.1401V40.326C24.3104 39.9197 24.5582 39.7044 24.9035 39.7044C25.2529 39.7044 25.4966 39.9197 25.4966 40.326V42.0566H25.521C25.7607 41.5407 26.2482 41.2319 26.8657 41.2319C27.9666 41.2319 28.637 42.0729 28.637 43.4785C28.637 44.8801 27.9707 45.7251 26.8698 45.7251C26.232 45.7251 25.7485 45.4163 25.5048 44.9085H25.4804V45.1401C25.4804 45.5341 25.2366 45.7413 24.8913 45.7413ZM26.4635 44.7704C27.0526 44.7704 27.4223 44.2747 27.4223 43.4785C27.4223 42.6863 27.0526 42.1826 26.4635 42.1826C25.8866 42.1826 25.4926 42.6985 25.4926 43.4785C25.4926 44.2666 25.8866 44.7704 26.4635 44.7704Z" fill="white"/>
<path d="M29.8679 45.7413C29.4982 45.7413 29.2748 45.5097 29.2748 45.1238V41.8332C29.2748 41.4472 29.4982 41.2116 29.8679 41.2116C30.2335 41.2116 30.461 41.4472 30.461 41.8332V45.1238C30.461 45.5097 30.2335 45.7413 29.8679 45.7413Z" fill="white"/>
<path d="M31.8748 45.7413C31.5295 45.7413 31.2816 45.5301 31.2816 45.1238V40.326C31.2816 39.9197 31.5295 39.7044 31.8748 39.7044C32.2241 39.7044 32.4679 39.9197 32.4679 40.326V45.1238C32.4679 45.5301 32.2241 45.7413 31.8748 45.7413Z" fill="white"/>
<path d="M33.8898 45.7413C33.5445 45.7413 33.2966 45.5301 33.2966 45.1238V40.326C33.2966 39.9197 33.5445 39.7044 33.8898 39.7044C34.2391 39.7044 34.4829 39.9197 34.4829 40.326V45.1238C34.4829 45.5301 34.2391 45.7413 33.8898 45.7413Z" fill="white"/>
<path d="M18.1025 40.7607C17.745 40.7607 17.4688 40.4885 17.4688 40.1473C17.4688 39.8019 17.745 39.5338 18.1025 39.5338C18.46 39.5338 18.7363 39.8019 18.7363 40.1473C18.7363 40.4885 18.46 40.7607 18.1025 40.7607Z" fill="white"/>
<path d="M29.8675 40.7607C29.51 40.7607 29.2338 40.4885 29.2338 40.1473C29.2338 39.8019 29.51 39.5338 29.8675 39.5338C30.225 39.5338 30.5013 39.8019 30.5013 40.1473C30.5013 40.4885 30.225 40.7607 29.8675 40.7607Z" fill="white"/>
<path d="M18.1025 40.7607C17.745 40.7607 17.4688 40.4885 17.4688 40.1473C17.4688 39.8019 17.745 39.5338 18.1025 39.5338C18.46 39.5338 18.7363 39.8019 18.7363 40.1473C18.7363 40.4885 18.46 40.7607 18.1025 40.7607Z" fill="#00FF29"/>
</svg>
