<svg xmlns="http://www.w3.org/2000/svg" width="201" height="188" viewBox="0 0 201 188" fill="none">
  <path d="M6.46484 93.8057V95.5073" stroke="#D2D8DF" stroke-width="1.48296" stroke-linecap="round"/>
  <path d="M2.63281 94.7246L4.02755 96.156" stroke="#D2D8DF" stroke-width="1.48296" stroke-linecap="round"/>
  <path d="M1 98.5361H2.97213" stroke="#D2D8DF" stroke-width="1.48296" stroke-linecap="round"/>
  <path d="M2.4707 102.413L3.86544 100.981" stroke="#D2D8DF" stroke-width="1.48296" stroke-linecap="round"/>
  <path d="M6.46484 102.878V101.177" stroke="#D2D8DF" stroke-width="1.48296" stroke-linecap="round"/>
  <path d="M9.30977 101.746L8.17188 100.611" stroke="#D2D8DF" stroke-width="1.48296" stroke-linecap="round"/>
  <path d="M11.5857 98.9102H9.87891" stroke="#D2D8DF" stroke-width="1.48296" stroke-linecap="round"/>
  <path d="M10.4484 94.9395L9.31055 96.0739" stroke="#D2D8DF" stroke-width="1.48296" stroke-linecap="round"/>
  <path d="M98.0645 19.5V20.6344" stroke="#D2D8DF" stroke-width="1.48296" stroke-linecap="round"/>
  <path d="M94.6523 22.9033H95.7902" stroke="#D2D8DF" stroke-width="1.48296" stroke-linecap="round"/>
  <path d="M98.0645 26.3053V25.1709" stroke="#D2D8DF" stroke-width="1.48296" stroke-linecap="round"/>
  <path d="M100.909 22.9033H99.7715" stroke="#D2D8DF" stroke-width="1.48296" stroke-linecap="round"/>
  <path d="M32.0684 67.1475V68.8491" stroke="#D2D8DF" stroke-width="1.48296" stroke-linecap="round"/>
  <path d="M26.9473 72.25H28.6541" stroke="#D2D8DF" stroke-width="1.48296" stroke-linecap="round"/>
  <path d="M32.0684 76.7886V75.0869" stroke="#D2D8DF" stroke-width="1.48296" stroke-linecap="round"/>
  <path d="M36.6209 72.25H34.9141" stroke="#D2D8DF" stroke-width="1.48296" stroke-linecap="round"/>
  <path d="M154.537 128.993C155.896 128.993 156.999 130.093 156.999 131.449C156.999 132.805 155.896 133.904 154.537 133.904C153.177 133.904 152.074 132.805 152.074 131.449" stroke="#D2D8DF" stroke-width="1.48296" stroke-linecap="round"/>
  <path fill-rule="evenodd" clip-rule="evenodd" d="M165.803 106.718C167.265 106.263 169.506 104.48 170.025 102.562C170.495 104.258 172.467 106.263 174.247 106.415C172.244 107.122 170.329 109.223 170.025 110.873C169.818 109.191 167.169 106.963 165.803 106.718Z" fill="#EBECEE"/>
  <path fill-rule="evenodd" clip-rule="evenodd" d="M15.7246 128.239C16.4559 128.011 17.576 127.12 17.8354 126.161C18.0706 127.008 19.0564 128.011 19.9461 128.087C18.9449 128.44 17.9875 129.491 17.8354 130.316C17.732 129.475 16.4076 128.361 15.7246 128.239Z" fill="#EBECEE"/>
  <path fill-rule="evenodd" clip-rule="evenodd" d="M29.2953 49.3337C29.2953 50.3857 28.4403 51.2377 27.3859 51.2377C26.331 51.2377 25.4766 50.3857 25.4766 49.3337C25.4766 48.2822 26.331 47.4297 27.3859 47.4297C28.4403 47.4297 29.2953 48.2822 29.2953 49.3337Z" fill="#D1D8DF"/>
  <path fill-rule="evenodd" clip-rule="evenodd" d="M156.795 54.447C156.795 56.2046 155.366 57.6294 153.604 57.6294C151.841 57.6294 150.412 56.2046 150.412 54.447C150.412 52.6894 151.841 51.2646 153.604 51.2646C155.366 51.2646 156.795 52.6894 156.795 54.447Z" fill="#EBECEE"/>
  <path fill-rule="evenodd" clip-rule="evenodd" d="M201 45.8242C201 47.2186 199.867 48.3486 198.469 48.3486C197.071 48.3486 195.938 47.2186 195.938 45.8242C195.938 44.4298 197.071 43.2998 198.469 43.2998C199.867 43.2998 201 44.4298 201 45.8242Z" fill="#EBECEE"/>
  <path fill-rule="evenodd" clip-rule="evenodd" d="M64.9803 163.725C64.9803 164.604 64.2659 165.317 63.3845 165.317C62.5034 165.317 61.7891 164.604 61.7891 163.725C61.7891 162.846 62.5034 162.134 63.3845 162.134C64.2659 162.134 64.9803 162.846 64.9803 163.725Z" stroke="#D2D8DF" stroke-width="1.48296" stroke-linecap="round"/>
  <path fill-rule="evenodd" clip-rule="evenodd" d="M64.0296 37.1023C64.0296 38.1542 63.1747 39.0063 62.1203 39.0063C61.0659 39.0063 60.2109 38.1542 60.2109 37.1023C60.2109 36.0508 61.0659 35.1982 62.1203 35.1982C63.1747 35.1982 64.0296 36.0508 64.0296 37.1023Z" stroke="#D2D8DF" stroke-width="1.48296" stroke-linecap="round"/>
  <path fill-rule="evenodd" clip-rule="evenodd" d="M112.732 181.347C111.512 181.81 110.147 181.198 109.682 179.982C109.218 178.765 109.831 177.403 111.051 176.941C112.271 176.478 113.636 177.089 114.101 178.305C114.565 179.522 113.952 180.884 112.732 181.347Z" stroke="#D2D8DF" stroke-width="1.48296" stroke-linecap="round"/>
  <path fill-rule="evenodd" clip-rule="evenodd" d="M112.003 136.346H65.3469C62.063 136.346 59.375 133.658 59.375 130.373V64.0416C59.375 60.7567 62.063 58.0703 65.3469 58.0703H112.003C115.288 58.0703 117.977 60.7567 117.977 64.0416V130.373C117.977 133.658 115.288 136.346 112.003 136.346Z" fill="#D8DFE6"/>
  <path fill-rule="evenodd" clip-rule="evenodd" d="M108.023 139.182H61.3665C58.0826 139.182 55.3945 136.494 55.3945 133.209V66.8776C55.3945 63.5927 58.0826 60.9062 61.3665 60.9062H108.023C111.308 60.9062 113.996 63.5927 113.996 66.8776V133.209C113.996 136.494 111.308 139.182 108.023 139.182Z" fill="#E9EFF1"/>
  <path fill-rule="evenodd" clip-rule="evenodd" d="M104.147 141.419H57.3944C54.1038 141.419 51.4102 138.742 51.4102 135.471V69.4144C51.4102 66.1431 54.1038 63.4678 57.3944 63.4678H104.147C107.439 63.4678 110.133 66.1431 110.133 69.4144V135.471C110.133 138.742 107.439 141.419 104.147 141.419Z" fill="#E9EFF1"/>
  <path fill-rule="evenodd" clip-rule="evenodd" d="M104.147 141.419H57.3944C54.1038 141.419 51.4102 138.742 51.4102 135.471V69.4144C51.4102 66.1431 54.1038 63.4678 57.3944 63.4678H104.147C107.439 63.4678 110.133 66.1431 110.133 69.4144V135.471C110.133 138.742 107.439 141.419 104.147 141.419Z" fill="#F7F8FA"/>
  <path fill-rule="evenodd" clip-rule="evenodd" d="M97.408 83.5947H62.8755C61.8893 83.5947 61.082 82.829 61.082 81.8937C61.082 80.957 61.8893 80.1914 62.8755 80.1914H97.408C98.3942 80.1914 99.2015 80.957 99.2015 81.8937C99.2015 82.829 98.3942 83.5947 97.408 83.5947Z" fill="#D8DFE6"/>
  <path fill-rule="evenodd" clip-rule="evenodd" d="M97.408 93.8046H62.8755C61.8893 93.8046 61.082 93.039 61.082 92.1036C61.082 91.167 61.8893 90.4014 62.8755 90.4014H97.408C98.3942 90.4014 99.2015 91.167 99.2015 92.1036C99.2015 93.039 98.3942 93.8046 97.408 93.8046Z" fill="#D8DFE6"/>
  <path fill-rule="evenodd" clip-rule="evenodd" d="M97.408 104.015H62.8755C61.8893 104.015 61.082 103.249 61.082 102.314C61.082 101.378 61.8893 100.611 62.8755 100.611H97.408C98.3942 100.611 99.2015 101.378 99.2015 102.314C99.2015 103.249 98.3942 104.015 97.408 104.015Z" fill="#D8DFE6"/>
  <path fill-rule="evenodd" clip-rule="evenodd" d="M97.408 114.223H62.8755C61.8893 114.223 61.082 113.457 61.082 112.522C61.082 111.585 61.8893 110.819 62.8755 110.819H97.408C98.3942 110.819 99.2015 111.585 99.2015 112.522C99.2015 113.457 98.3942 114.223 97.408 114.223Z" fill="#D8DFE6"/>
  <path fill-rule="evenodd" clip-rule="evenodd" d="M80.9009 124.433H62.8831C61.8927 124.433 61.082 123.667 61.082 122.732C61.082 121.795 61.8927 121.029 62.8831 121.029H80.9009C81.8913 121.029 82.702 121.795 82.702 122.732C82.702 123.667 81.8913 124.433 80.9009 124.433Z" fill="#D8DFE6"/>
  <path fill-rule="evenodd" clip-rule="evenodd" d="M117.269 111.239C110.364 118.122 99.6737 118.898 91.9129 113.584C90.9211 112.893 89.977 112.116 89.0967 111.239C88.6435 110.789 88.2163 110.324 87.8138 109.835C87.0088 108.858 86.3036 107.816 85.7259 106.739C84.708 104.92 84.0159 102.991 83.638 100.996C82.4189 94.741 84.2418 88.0082 89.0967 83.1704C93.9631 78.3181 100.718 76.5126 106.993 77.7163C108.993 78.1045 110.93 78.7944 112.754 79.7975C113.836 80.3863 114.867 81.0892 115.848 81.8916C116.338 82.2914 116.804 82.7186 117.256 83.1704C118.138 84.0479 118.928 84.9874 119.609 85.9775C124.941 93.712 124.161 104.369 117.269 111.239Z" fill="white" fill-opacity="0.1"/>
  <path fill-rule="evenodd" clip-rule="evenodd" d="M115.337 109.884C108.153 117.047 96.5112 117.046 89.326 109.884C82.1502 102.73 82.1502 91.1222 89.3354 83.9602C96.5112 76.8062 108.153 76.8062 115.329 83.9602C122.513 91.1222 122.513 102.73 115.337 109.884ZM119.026 80.2805C109.805 71.0875 94.8626 71.0875 85.6415 80.2805C76.4217 89.4722 76.4137 104.379 85.6335 113.572C94.0258 121.936 107.18 122.69 116.432 115.823C117.335 115.151 118.205 114.398 119.036 113.572C119.864 112.744 120.62 111.876 121.292 110.975C128.181 101.75 127.417 88.6459 119.026 80.2805Z" fill="#D8DFE6"/>
  <path fill-rule="evenodd" clip-rule="evenodd" d="M155.314 148.226L154.927 148.612C152.366 151.166 148.172 151.166 145.609 148.612L121.961 125.035L131.666 115.36L155.314 138.936C157.876 141.491 157.876 145.671 155.314 148.226Z" fill="#0674FF"/>
  <path fill-rule="evenodd" clip-rule="evenodd" d="M121.802 110.256L128.79 117.223L123.829 122.167L116.842 115.201C117.764 114.515 118.651 113.747 119.499 112.904C120.345 112.06 121.115 111.175 121.802 110.256Z" fill="#D8DFE6"/>
  <path fill-rule="evenodd" clip-rule="evenodd" d="M154.961 138.645L145.318 148.257L143.582 146.525L153.224 136.913L154.961 138.645Z" fill="#F8FCFF"/>
  <path fill-rule="evenodd" clip-rule="evenodd" d="M132.203 115.693L122.296 125.57L120.824 124.103L130.731 114.226L132.203 115.693Z" fill="#084AC5"/>
  <path fill-rule="evenodd" clip-rule="evenodd" d="M110.582 81.495L86.2857 105.716C85.3707 104.081 84.7486 102.346 84.4102 100.553L105.403 79.624C107.2 79.9744 108.942 80.5933 110.582 81.495Z" fill="white" fill-opacity="0.5"/>
  <path fill-rule="evenodd" clip-rule="evenodd" d="M118.547 87.2523L92.2801 111.955C91.3395 111.338 90.4441 110.643 89.6092 109.858C89.1794 109.454 88.773 109.039 88.3926 108.601L114.979 83.5947C115.445 83.9538 115.887 84.3361 116.315 84.7403C117.15 85.5256 117.901 86.3663 118.547 87.2523Z" fill="white" fill-opacity="0.5"/>
</svg>